<?xml version="1.0" encoding="utf-8" ?>
<svg baseProfile="full" height="1000" version="1.1" width="1000" xmlns="http://www.w3.org/2000/svg" xmlns:ev="http://www.w3.org/2001/xml-events" xmlns:xlink="http://www.w3.org/1999/xlink"><defs /><line stroke="black" style="stroke-width: 1" x1="481.0" x2="675.0" y1="180.0" y2="62.0" /><line stroke="black" style="stroke-width: 1" x1="554.0" x2="675.0" y1="361.0" y2="62.0" /><line stroke="black" style="stroke-width: 1" x1="554.0" x2="481.0" y1="361.0" y2="180.0" /><polygon fill="blue" opacity="0.20" points="554.0,361.0 481.0,180.0 675.0,62.0" /><line stroke="black" style="stroke-width: 1" x1="611.8890832548394" x2="500.73625623523236" y1="217.9517694777109" y2="228.935101076398" /><line stroke="black" style="stroke-width: 1" x1="536.6414274631497" x2="500.73625623523236" y1="146.15624515128007" y2="228.935101076398" /><line stroke="black" style="stroke-width: 1" x1="536.6414274631497" x2="611.8890832548394" y1="146.15624515128007" y2="217.9517694777109" /><polygon fill="red" opacity="0.20" points="536.6414274631497,146.15624515128007 611.8890832548394,217.9517694777109 500.73625623523236,228.935101076398" /><line stroke="black" style="stroke-width: 0.7" x1="519.9080795414095" x2="569.2402331565046" y1="184.7347381477754" y2="177.25951770570185" /><line stroke="black" style="stroke-width: 0.7" x1="552.340034503827" x2="569.2402331565046" y1="223.8359828293199" y2="177.25951770570185" /><line stroke="black" style="stroke-width: 0.7" x1="552.340034503827" x2="519.9080795414095" y1="223.8359828293199" y2="184.7347381477754" /><polygon fill="blue" opacity="0.20" points="552.340034503827,223.8359828293199 519.9080795414095,184.7347381477754 569.2402331565046,177.25951770570185" /><line stroke="black" style="stroke-width: 0.48999999999999994" x1="560.894769739045" x2="536.1964351466996" y1="200.25937668916015" y2="204.3726224110145" /><line stroke="black" style="stroke-width: 0.48999999999999994" x1="544.9894790659775" x2="536.1964351466996" y1="180.934194755631" y2="204.3726224110145" /><line stroke="black" style="stroke-width: 0.48999999999999994" x1="544.9894790659775" x2="560.894769739045" y1="180.934194755631" y2="200.25937668916015" /><polygon fill="red" opacity="0.20" points="544.9894790659775,180.934194755631 560.894769739045,200.25937668916015 536.1964351466996,204.3726224110145" /><line stroke="black" style="stroke-width: 0.3429999999999999" x1="540.5940926845592" x2="552.9410706794973" y1="192.6503816260715" y2="190.59550543212507" /><line stroke="black" style="stroke-width: 0.3429999999999999" x1="548.5471558505673" x2="552.9410706794973" y1="202.31574084650407" y2="190.59550543212507" /><line stroke="black" style="stroke-width: 0.3429999999999999" x1="548.5471558505673" x2="540.5940926845592" y1="202.31574084650407" y2="192.6503816260715" /><polygon fill="blue" opacity="0.20" points="548.5471558505673,202.31574084650407 540.5940926845592,192.6503816260715 552.9410706794973,190.59550543212507" /><line stroke="black" style="stroke-width: 0.24009999999999992" x1="550.7441132689194" x2="544.570624064917" y1="196.4556231289554" y2="197.4830609901724" /><line stroke="black" style="stroke-width: 0.24009999999999992" x1="546.7675813785468" x2="544.570624064917" y1="191.62294357955173" y2="197.4830609901724" /><line stroke="black" style="stroke-width: 0.24009999999999992" x1="546.7675813785468" x2="550.7441132689194" y1="191.62294357955173" y2="196.4556231289554" /><polygon fill="red" opacity="0.20" points="546.7675813785468,191.62294357955173 550.7441132689194,196.4556231289554 544.570624064917,197.4830609901724" /><line stroke="black" style="stroke-width: 0.16806999999999994" x1="545.6691027218207" x2="548.7558473236116" y1="194.5530022846254" y2="194.0392833541376" /><line stroke="black" style="stroke-width: 0.16806999999999994" x1="547.6573686669676" x2="548.7558473236116" y1="196.9693420595532" y2="194.0392833541376" /><line stroke="black" style="stroke-width: 0.16806999999999994" x1="547.6573686669676" x2="545.6691027218207" y1="196.9693420595532" y2="194.5530022846254" /><polygon fill="blue" opacity="0.20" points="547.6573686669676,196.9693420595532 545.6691027218207,194.5530022846254 548.7558473236116,194.0392833541376" /><line stroke="black" style="stroke-width: 0.11764899999999995" x1="548.2066079952922" x2="546.6632356943908" y1="195.50431270682844" y2="195.761172172088" /><line stroke="black" style="stroke-width: 0.11764899999999995" x1="547.2124750227299" x2="546.6632356943908" y1="194.29614281937626" y2="195.761172172088" /><line stroke="black" style="stroke-width: 0.11764899999999995" x1="547.2124750227299" x2="548.2066079952922" y1="194.29614281937626" y2="195.50431270682844" /><polygon fill="red" opacity="0.20" points="547.2124750227299,194.29614281937626 548.2066079952922,195.50431270682844 546.6632356943908,195.761172172088" /><line stroke="black" style="stroke-width: 0.08235429999999996" x1="546.9378553585589" x2="547.709541509014" y1="195.02865749573252" y2="194.90022776310457" /><line stroke="black" style="stroke-width: 0.08235429999999996" x1="547.434921844838" x2="547.709541509014" y1="195.63274243946142" y2="194.90022776310457" /><line stroke="black" style="stroke-width: 0.08235429999999996" x1="547.434921844838" x2="546.9378553585589" y1="195.63274243946142" y2="195.02865749573252" /><polygon fill="blue" opacity="0.20" points="547.434921844838,195.63274243946142 546.9378553585589,195.02865749573252 547.709541509014,194.90022776310457" /><line stroke="black" style="stroke-width: 0.05764800999999997" x1="547.5722316769235" x2="547.1863886017059" y1="195.26648510128464" y2="195.33069996759662" /><line stroke="black" style="stroke-width: 0.05764800999999997" x1="547.3236984337809" x2="547.1863886017059" y1="194.96444262941475" y2="195.33069996759662" /><line stroke="black" style="stroke-width: 0.05764800999999997" x1="547.3236984337809" x2="547.5722316769235" y1="194.96444262941475" y2="195.26648510128464" /><polygon fill="red" opacity="0.20" points="547.3236984337809,194.96444262941475 547.5722316769235,195.26648510128464 547.1863886017059,195.33069996759662" /><line stroke="black" style="stroke-width: 0.04035360699999998" x1="547.2550435177383" x2="547.447965055356" y1="195.14757129851023" y2="195.1154638653518" /><line stroke="black" style="stroke-width: 0.04035360699999998" x1="547.3793101393131" x2="547.447965055356" y1="195.2985925344387" y2="195.1154638653518" /><line stroke="black" style="stroke-width: 0.04035360699999998" x1="547.3793101393131" x2="547.2550435177383" y1="195.2985925344387" y2="195.14757129851023" /><polygon fill="blue" opacity="0.20" points="547.3793101393131,195.2985925344387 547.2550435177383,195.14757129851023 547.447965055356,195.1154638653518" /></svg>