<?xml version="1.0" encoding="utf-8" ?>
<svg baseProfile="full" height="1000" version="1.1" width="1000" xmlns="http://www.w3.org/2000/svg" xmlns:ev="http://www.w3.org/2001/xml-events" xmlns:xlink="http://www.w3.org/1999/xlink"><defs /><line stroke="black" style="stroke-width: 1" x1="189.0" x2="271.0" y1="337.0" y2="629.0" /><line stroke="black" style="stroke-width: 1" x1="373.0" x2="271.0" y1="436.0" y2="629.0" /><line stroke="black" style="stroke-width: 1" x1="373.0" x2="189.0" y1="436.0" y2="337.0" /><polygon fill="blue" opacity="0.20" points="373.0,436.0 189.0,337.0 271.0,629.0" /><line stroke="black" style="stroke-width: 1" x1="339.241873544163" x2="312.1429247696055" y1="499.87567064682884" y2="403.2562475662551" /><line stroke="black" style="stroke-width: 1" x1="229.40631386702614" x2="312.1429247696055" y1="480.88589816062967" y2="403.2562475662551" /><line stroke="black" style="stroke-width: 1" x1="229.40631386702614" x2="339.241873544163" y1="480.88589816062967" y2="499.87567064682884" /><polygon fill="red" opacity="0.20" points="229.40631386702614,480.88589816062967 339.241873544163,499.87567064682884 312.1429247696055,403.2562475662551" /><line stroke="black" style="stroke-width: 0.7" x1="273.2973069683206" x2="288.45256253580294" y1="439.7040994197508" y2="491.0945667528378" /><line stroke="black" style="stroke-width: 0.7" x1="325.89300073700906" x2="288.45256253580294" y1="452.2811901327328" y2="491.0945667528378" /><line stroke="black" style="stroke-width: 0.7" x1="325.89300073700906" x2="273.2973069683206" y1="452.2811901327328" y2="439.7040994197508" /><polygon fill="blue" opacity="0.20" points="325.89300073700906,452.2811901327328 273.2973069683206,439.7040994197508 288.45256253580294,491.0945667528378" /><line stroke="black" style="stroke-width: 0.48999999999999994" x1="307.05728575536085" x2="299.4824424254754" y1="471.8076095502341" y2="445.96569234451255" /><line stroke="black" style="stroke-width: 0.48999999999999994" x1="280.88921154427385" x2="299.4824424254754" y1="465.4477447426007" y2="445.96569234451255" /><line stroke="black" style="stroke-width: 0.48999999999999994" x1="280.88921154427385" x2="307.05728575536085" y1="465.4477447426007" y2="471.8076095502341" /><polygon fill="red" opacity="0.20" points="280.88921154427385,465.4477447426007 307.05728575536085,471.8076095502341 299.4824424254754,445.96569234451255" /><line stroke="black" style="stroke-width: 0.3429999999999999" x1="290.1859682086435" x2="293.9737036817601" y1="455.70657056879696" y2="468.6277877369676" /><line stroke="black" style="stroke-width: 0.3429999999999999" x1="303.2699382737405" x2="293.9737036817601" y1="458.88690402710546" y2="468.6277877369676" /><line stroke="black" style="stroke-width: 0.3429999999999999" x1="303.2699382737405" x2="290.1859682086435" y1="458.88690402710546" y2="455.70657056879696" /><polygon fill="blue" opacity="0.20" points="303.2699382737405,458.88690402710546 290.1859682086435,455.70657056879696 293.9737036817601,468.6277877369676" /><line stroke="black" style="stroke-width: 0.24009999999999992" x1="298.62182097390996" x2="296.7279532421899" y1="463.7573458860578" y2="457.29673729819484" /><line stroke="black" style="stroke-width: 0.24009999999999992" x1="292.0798359470544" x2="296.7279532421899" y1="462.16717915920964" y2="457.29673729819484" /><line stroke="black" style="stroke-width: 0.24009999999999992" x1="292.0798359470544" x2="298.62182097390996" y1="462.16717915920964" y2="463.7573458860578" /><polygon fill="red" opacity="0.20" points="292.0798359470544,462.16717915920964 298.62182097390996,463.7573458860578 296.7279532421899,457.29673729819484" /><line stroke="black" style="stroke-width: 0.16806999999999994" x1="294.4038945946223" x2="295.35082846048635" y1="459.73195822869843" y2="462.96226252263693" /><line stroke="black" style="stroke-width: 0.16806999999999994" x1="297.6748871080583" x2="295.35082846048635" y1="460.5270415921288" y2="462.96226252263693" /><line stroke="black" style="stroke-width: 0.16806999999999994" x1="297.6748871080583" x2="294.4038945946223" y1="460.5270415921288" y2="459.73195822869843" /><polygon fill="blue" opacity="0.20" points="297.6748871080583,460.5270415921288 294.4038945946223,459.73195822869843 295.35082846048635,462.96226252263693" /><line stroke="black" style="stroke-width: 0.11764899999999995" x1="296.51285778427155" x2="296.03939085134147" y1="461.74465205738403" y2="460.12949991041523" /><line stroke="black" style="stroke-width: 0.11764899999999995" x1="294.8773615275535" x2="296.03939085134147" y1="461.34711037566825" y2="460.12949991041523" /><line stroke="black" style="stroke-width: 0.11764899999999995" x1="294.8773615275535" x2="296.51285778427155" y1="461.34711037566825" y2="461.74465205738403" /><polygon fill="red" opacity="0.20" points="294.8773615275535,461.34711037566825 296.51285778427155,461.74465205738403 296.03939085134147,460.12949991041523" /><line stroke="black" style="stroke-width: 0.08235429999999996" x1="295.45837618944415" x2="295.6951096559191" y1="460.7383051430451" y2="461.54588121652455" /><line stroke="black" style="stroke-width: 0.08235429999999996" x1="296.27612431780653" x2="295.6951096559191" y1="460.9370759838979" y2="461.54588121652455" /><line stroke="black" style="stroke-width: 0.08235429999999996" x1="296.27612431780653" x2="295.45837618944415" y1="460.9370759838979" y2="460.7383051430451" /><polygon fill="blue" opacity="0.20" points="296.27612431780653,460.9370759838979 295.45837618944415,460.7383051430451 295.6951096559191,461.54588121652455" /><line stroke="black" style="stroke-width: 0.05764800999999997" x1="295.9856169868904" x2="295.86725025361295" y1="461.2414786001787" y2="460.8376905634674" /><line stroke="black" style="stroke-width: 0.05764800999999997" x1="295.5767429226683" x2="295.86725025361295" y1="461.1420931797287" y2="460.8376905634674" /><line stroke="black" style="stroke-width: 0.05764800999999997" x1="295.5767429226683" x2="295.9856169868904" y1="461.1420931797287" y2="461.2414786001787" /><polygon fill="red" opacity="0.20" points="295.5767429226683,461.1420931797287 295.9856169868904,461.2414786001787 295.86725025361295,460.8376905634674" /><line stroke="black" style="stroke-width: 0.04035360699999998" x1="295.72199658815464" x2="295.7811799547654" y1="460.9898918715799" y2="461.191785889951" /><line stroke="black" style="stroke-width: 0.04035360699999998" x1="295.9264336202437" x2="295.7811799547654" y1="461.0395845817995" y2="461.191785889951" /><line stroke="black" style="stroke-width: 0.04035360699999998" x1="295.9264336202437" x2="295.72199658815464" y1="461.0395845817995" y2="460.9898918715799" /><polygon fill="blue" opacity="0.20" points="295.9264336202437,461.0395845817995 295.72199658815464,460.9898918715799 295.7811799547654,461.191785889951" /></svg>