<?xml version="1.0" encoding="utf-8" ?>
<svg baseProfile="full" height="1000" version="1.1" width="1000" xmlns="http://www.w3.org/2000/svg" xmlns:ev="http://www.w3.org/2001/xml-events" xmlns:xlink="http://www.w3.org/1999/xlink"><defs /><line stroke="black" style="stroke-width: 1" x1="418.0" x2="681.0" y1="109.0" y2="379.0" /><line stroke="black" style="stroke-width: 1" x1="834.0" x2="681.0" y1="42.0" y2="379.0" /><line stroke="black" style="stroke-width: 1" x1="834.0" x2="418.0" y1="42.0" y2="109.0" /><polygon fill="blue" opacity="0.20" points="834.0,42.0 418.0,109.0 681.0,379.0" /><line stroke="black" style="stroke-width: 1" x1="750.8957423819884" x2="627.9880931594807" y1="225.0466327926139" y2="75.17980230364132" /><line stroke="black" style="stroke-width: 1" x1="562.0163605947345" x2="627.9880931594807" y1="256.84949566759815" y2="75.17980230364132" /><line stroke="black" style="stroke-width: 1" x1="562.0163605947345" x2="750.8957423819884" y1="256.84949566759815" y2="225.0466327926139" /><polygon fill="red" opacity="0.20" points="562.0163605947345,256.84949566759815 750.8957423819884,225.0466327926139 627.9880931594807,75.17980230364132" /><line stroke="black" style="stroke-width: 0.7" x1="594.7433534917603" x2="656.2756763779337" y1="166.72752170713167" y2="240.97843517292947" /><line stroke="black" style="stroke-width: 0.7" x1="689.8068834458885" x2="656.2756763779337" y1="150.55823662804949" y2="240.97843517292947" /><line stroke="black" style="stroke-width: 0.7" x1="689.8068834458885" x2="594.7433534917603" y1="150.55823662804949" y2="166.72752170713167" /><polygon fill="blue" opacity="0.20" points="689.8068834458885,150.55823662804949 594.7433534917603,166.72752170713167 656.2756763779337,240.97843517292947" /><line stroke="black" style="stroke-width: 0.48999999999999994" x1="673.0418233746487" x2="642.2738758997558" y1="195.76687039975923" y2="158.64309051524353" /><line stroke="black" style="stroke-width: 0.48999999999999994" x1="625.5077133544016" x2="642.2738758997558" y1="203.85080447700756" y2="158.64309051524353" /><line stroke="black" style="stroke-width: 0.48999999999999994" x1="625.5077133544016" x2="673.0418233746487" y1="203.85080447700756" y2="195.76687039975923" /><polygon fill="red" opacity="0.20" points="625.5077133544016,203.85080447700756 673.0418233746487,195.76687039975923 642.2738758997558,158.64309051524353" /><line stroke="black" style="stroke-width: 0.3429999999999999" x1="633.8907946040644" x2="649.2747683080071" y1="181.24694755818783" y2="199.80883744799334" /><line stroke="black" style="stroke-width: 0.3429999999999999" x1="657.657849642853" x2="649.2747683080071" y1="177.20498046432067" y2="199.80883744799334" /><line stroke="black" style="stroke-width: 0.3429999999999999" x1="657.657849642853" x2="633.8907946040644" y1="177.20498046432067" y2="181.24694755818783" /><polygon fill="blue" opacity="0.20" points="657.657849642853,177.20498046432067 633.8907946040644,181.24694755818783 649.2747683080071,199.80883744799334" /><line stroke="black" style="stroke-width: 0.24009999999999992" x1="653.4663089754273" x2="645.7743221234538" y1="188.50690895615284" y2="179.22596401125261" /><line stroke="black" style="stroke-width: 0.24009999999999992" x1="641.5827814569536" x2="645.7743221234538" y1="190.52789250308447" y2="179.22596401125261" /><line stroke="black" style="stroke-width: 0.24009999999999992" x1="641.5827814569536" x2="653.4663089754273" y1="190.52789250308447" y2="188.50690895615284" /><polygon fill="red" opacity="0.20" points="641.5827814569536,190.52789250308447 653.4663089754273,188.50690895615284 645.7743221234538,179.22596401125261" /><line stroke="black" style="stroke-width: 0.16806999999999994" x1="643.6785517901002" x2="647.5245452160844" y1="184.87692825745648" y2="189.51740072963364" /><line stroke="black" style="stroke-width: 0.16806999999999994" x1="649.6203155495704" x2="647.5245452160844" y1="183.86643648385356" y2="189.51740072963364" /><line stroke="black" style="stroke-width: 0.16806999999999994" x1="649.6203155495704" x2="643.6785517901002" y1="183.86643648385356" y2="184.87692825745648" /><polygon fill="blue" opacity="0.20" points="649.6203155495704,183.86643648385356 643.6785517901002,184.87692825745648 647.5245452160844,189.51740072963364" /><line stroke="black" style="stroke-width: 0.11764899999999995" x1="648.5724303828434" x2="646.6494336698313" y1="186.69191860674175" y2="184.37168237065165" /><line stroke="black" style="stroke-width: 0.11764899999999995" x1="645.6015485030925" x2="646.6494336698313" y1="187.1971644935492" y2="184.37168237065165" /><line stroke="black" style="stroke-width: 0.11764899999999995" x1="645.6015485030925" x2="648.5724303828434" y1="187.1971644935492" y2="186.69191860674175" /><polygon fill="red" opacity="0.20" points="645.6015485030925,187.1971644935492 648.5724303828434,186.69191860674175 646.6494336698313,184.37168237065165" /><line stroke="black" style="stroke-width: 0.08235429999999996" x1="646.1254910864618" x2="647.0869894429653" y1="185.78442343209719" y2="186.94454155013983" /><line stroke="black" style="stroke-width: 0.08235429999999996" x1="647.6109320263339" x2="647.0869894429653" y1="185.53180048869189" y2="186.94454155013983" /><line stroke="black" style="stroke-width: 0.08235429999999996" x1="647.6109320263339" x2="646.1254910864618" y1="185.53180048869189" y2="185.78442343209719" /><polygon fill="blue" opacity="0.20" points="647.6109320263339,185.53180048869189 646.1254910864618,185.78442343209719 647.0869894429653,186.94454155013983" /><line stroke="black" style="stroke-width: 0.05764800999999997" x1="647.3489607346471" x2="646.8682115564" y1="186.23817101941867" y2="185.65811196039465" /><line stroke="black" style="stroke-width: 0.05764800999999997" x1="646.6062402647107" x2="646.8682115564" y1="186.36448249111476" y2="185.65811196039465" /><line stroke="black" style="stroke-width: 0.05764800999999997" x1="646.6062402647107" x2="647.3489607346471" y1="186.36448249111476" y2="186.23817101941867" /><polygon fill="red" opacity="0.20" points="646.6062402647107,186.36448249111476 647.3489607346471,186.23817101941867 646.8682115564,185.65811196039465" /><line stroke="black" style="stroke-width: 0.04035360699999998" x1="646.7372259105543" x2="646.9776004996882" y1="186.01129722575104" y2="186.3013267552707" /><line stroke="black" style="stroke-width: 0.04035360699999998" x1="647.1085861455138" x2="646.9776004996882" y1="185.94814148990403" y2="186.3013267552707" /><line stroke="black" style="stroke-width: 0.04035360699999998" x1="647.1085861455138" x2="646.7372259105543" y1="185.94814148990403" y2="186.01129722575104" /><polygon fill="blue" opacity="0.20" points="647.1085861455138,185.94814148990403 646.7372259105543,186.01129722575104 646.9776004996882,186.3013267552707" /></svg>