<?xml version="1.0" encoding="utf-8" ?>
<svg baseProfile="full" height="1000" version="1.1" width="1000" xmlns="http://www.w3.org/2000/svg" xmlns:ev="http://www.w3.org/2001/xml-events" xmlns:xlink="http://www.w3.org/1999/xlink"><defs /><line stroke="black" style="stroke-width: 1" x1="562.0" x2="91.0" y1="744.0" y2="49.0" /><line stroke="black" style="stroke-width: 1" x1="604.0" x2="91.0" y1="526.0" y2="49.0" /><line stroke="black" style="stroke-width: 1" x1="604.0" x2="562.0" y1="526.0" y2="744.0" /><polygon fill="blue" opacity="0.20" points="604.0,526.0 562.0,744.0 91.0,49.0" /><line stroke="black" style="stroke-width: 1" x1="347.5" x2="583.0" y1="287.5" y2="635.0" /><line stroke="black" style="stroke-width: 1" x1="326.5" x2="583.0" y1="396.5" y2="635.0" /><line stroke="black" style="stroke-width: 1" x1="326.5" x2="347.5" y1="396.5" y2="287.5" /><polygon fill="red" opacity="0.20" points="326.5,396.5 347.5,287.5 583.0,635.0" /><line stroke="black" style="stroke-width: 0.7" x1="454.75" x2="337.0" y1="515.75" y2="342.0" /><line stroke="black" style="stroke-width: 0.7" x1="465.25" x2="337.0" y1="461.25" y2="342.0" /><line stroke="black" style="stroke-width: 0.7" x1="465.25" x2="454.75" y1="461.25" y2="515.75" /><polygon fill="blue" opacity="0.20" points="465.25,461.25 454.75,515.75 337.0,342.0" /><line stroke="black" style="stroke-width: 0.48999999999999994" x1="401.125" x2="460.0" y1="401.625" y2="488.5" /><line stroke="black" style="stroke-width: 0.48999999999999994" x1="395.875" x2="460.0" y1="428.875" y2="488.5" /><line stroke="black" style="stroke-width: 0.48999999999999994" x1="395.875" x2="401.125" y1="428.875" y2="401.625" /><polygon fill="red" opacity="0.20" points="395.875,428.875 401.125,401.625 460.0,488.5" /><line stroke="black" style="stroke-width: 0.3429999999999999" x1="427.9375" x2="398.5" y1="458.6875" y2="415.25" /><line stroke="black" style="stroke-width: 0.3429999999999999" x1="430.5625" x2="398.5" y1="445.0625" y2="415.25" /><line stroke="black" style="stroke-width: 0.3429999999999999" x1="430.5625" x2="427.9375" y1="445.0625" y2="458.6875" /><polygon fill="blue" opacity="0.20" points="430.5625,445.0625 427.9375,458.6875 398.5,415.25" /><line stroke="black" style="stroke-width: 0.24009999999999992" x1="414.53125" x2="429.25" y1="430.15625" y2="451.875" /><line stroke="black" style="stroke-width: 0.24009999999999992" x1="413.21875" x2="429.25" y1="436.96875" y2="451.875" /><line stroke="black" style="stroke-width: 0.24009999999999992" x1="413.21875" x2="414.53125" y1="436.96875" y2="430.15625" /><polygon fill="red" opacity="0.20" points="413.21875,436.96875 414.53125,430.15625 429.25,451.875" /><line stroke="black" style="stroke-width: 0.16806999999999994" x1="421.234375" x2="413.875" y1="444.421875" y2="433.5625" /><line stroke="black" style="stroke-width: 0.16806999999999994" x1="421.890625" x2="413.875" y1="441.015625" y2="433.5625" /><line stroke="black" style="stroke-width: 0.16806999999999994" x1="421.890625" x2="421.234375" y1="441.015625" y2="444.421875" /><polygon fill="blue" opacity="0.20" points="421.890625,441.015625 421.234375,444.421875 413.875,433.5625" /><line stroke="black" style="stroke-width: 0.11764899999999995" x1="417.8828125" x2="421.5625" y1="437.2890625" y2="442.71875" /><line stroke="black" style="stroke-width: 0.11764899999999995" x1="417.5546875" x2="421.5625" y1="438.9921875" y2="442.71875" /><line stroke="black" style="stroke-width: 0.11764899999999995" x1="417.5546875" x2="417.8828125" y1="438.9921875" y2="437.2890625" /><polygon fill="red" opacity="0.20" points="417.5546875,438.9921875 417.8828125,437.2890625 421.5625,442.71875" /><line stroke="black" style="stroke-width: 0.08235429999999996" x1="419.55859375" x2="417.71875" y1="440.85546875" y2="438.140625" /><line stroke="black" style="stroke-width: 0.08235429999999996" x1="419.72265625" x2="417.71875" y1="440.00390625" y2="438.140625" /><line stroke="black" style="stroke-width: 0.08235429999999996" x1="419.72265625" x2="419.55859375" y1="440.00390625" y2="440.85546875" /><polygon fill="blue" opacity="0.20" points="419.72265625,440.00390625 419.55859375,440.85546875 417.71875,438.140625" /><line stroke="black" style="stroke-width: 0.05764800999999997" x1="418.720703125" x2="419.640625" y1="439.072265625" y2="440.4296875" /><line stroke="black" style="stroke-width: 0.05764800999999997" x1="418.638671875" x2="419.640625" y1="439.498046875" y2="440.4296875" /><line stroke="black" style="stroke-width: 0.05764800999999997" x1="418.638671875" x2="418.720703125" y1="439.498046875" y2="439.072265625" /><polygon fill="red" opacity="0.20" points="418.638671875,439.498046875 418.720703125,439.072265625 419.640625,440.4296875" /><line stroke="black" style="stroke-width: 0.04035360699999998" x1="419.1396484375" x2="418.6796875" y1="439.9638671875" y2="439.28515625" /><line stroke="black" style="stroke-width: 0.04035360699999998" x1="419.1806640625" x2="418.6796875" y1="439.7509765625" y2="439.28515625" /><line stroke="black" style="stroke-width: 0.04035360699999998" x1="419.1806640625" x2="419.1396484375" y1="439.7509765625" y2="439.9638671875" /><polygon fill="blue" opacity="0.20" points="419.1806640625,439.7509765625 419.1396484375,439.9638671875 418.6796875,439.28515625" /></svg>