<?xml version="1.0" encoding="utf-8" ?>
<svg baseProfile="full" height="1000" version="1.1" width="1000" xmlns="http://www.w3.org/2000/svg" xmlns:ev="http://www.w3.org/2001/xml-events" xmlns:xlink="http://www.w3.org/1999/xlink"><defs /><line stroke="black" style="stroke-width: 1" x1="887.0" x2="111.0" y1="235.0" y2="805.0" /><line stroke="black" style="stroke-width: 1" x1="725.0" x2="111.0" y1="714.0" y2="805.0" /><line stroke="black" style="stroke-width: 1" x1="725.0" x2="887.0" y1="714.0" y2="235.0" /><polygon fill="blue" opacity="0.20" points="725.0,714.0 887.0,235.0 111.0,805.0" /><line stroke="black" style="stroke-width: 1" x1="418.0" x2="806.0" y1="759.5" y2="474.5" /><line stroke="black" style="stroke-width: 1" x1="499.0" x2="806.0" y1="520.0" y2="474.5" /><line stroke="black" style="stroke-width: 1" x1="499.0" x2="418.0" y1="520.0" y2="759.5" /><polygon fill="red" opacity="0.20" points="499.0,520.0 418.0,759.5 806.0,474.5" /><line stroke="black" style="stroke-width: 0.7" x1="652.5" x2="458.5" y1="497.25" y2="639.75" /><line stroke="black" style="stroke-width: 0.7" x1="612.0" x2="458.5" y1="617.0" y2="639.75" /><line stroke="black" style="stroke-width: 0.7" x1="612.0" x2="652.5" y1="617.0" y2="497.25" /><polygon fill="blue" opacity="0.20" points="612.0,617.0 652.5,497.25 458.5,639.75" /><line stroke="black" style="stroke-width: 0.48999999999999994" x1="535.25" x2="632.25" y1="628.375" y2="557.125" /><line stroke="black" style="stroke-width: 0.48999999999999994" x1="555.5" x2="632.25" y1="568.5" y2="557.125" /><line stroke="black" style="stroke-width: 0.48999999999999994" x1="555.5" x2="535.25" y1="568.5" y2="628.375" /><polygon fill="red" opacity="0.20" points="555.5,568.5 535.25,628.375 632.25,557.125" /><line stroke="black" style="stroke-width: 0.3429999999999999" x1="593.875" x2="545.375" y1="562.8125" y2="598.4375" /><line stroke="black" style="stroke-width: 0.3429999999999999" x1="583.75" x2="545.375" y1="592.75" y2="598.4375" /><line stroke="black" style="stroke-width: 0.3429999999999999" x1="583.75" x2="593.875" y1="592.75" y2="562.8125" /><polygon fill="blue" opacity="0.20" points="583.75,592.75 593.875,562.8125 545.375,598.4375" /><line stroke="black" style="stroke-width: 0.24009999999999992" x1="564.5625" x2="588.8125" y1="595.59375" y2="577.78125" /><line stroke="black" style="stroke-width: 0.24009999999999992" x1="569.625" x2="588.8125" y1="580.625" y2="577.78125" /><line stroke="black" style="stroke-width: 0.24009999999999992" x1="569.625" x2="564.5625" y1="580.625" y2="595.59375" /><polygon fill="red" opacity="0.20" points="569.625,580.625 564.5625,595.59375 588.8125,577.78125" /><line stroke="black" style="stroke-width: 0.16806999999999994" x1="579.21875" x2="567.09375" y1="579.203125" y2="588.109375" /><line stroke="black" style="stroke-width: 0.16806999999999994" x1="576.6875" x2="567.09375" y1="586.6875" y2="588.109375" /><line stroke="black" style="stroke-width: 0.16806999999999994" x1="576.6875" x2="579.21875" y1="586.6875" y2="579.203125" /><polygon fill="blue" opacity="0.20" points="576.6875,586.6875 579.21875,579.203125 567.09375,588.109375" /><line stroke="black" style="stroke-width: 0.11764899999999995" x1="571.890625" x2="577.953125" y1="587.3984375" y2="582.9453125" /><line stroke="black" style="stroke-width: 0.11764899999999995" x1="573.15625" x2="577.953125" y1="583.65625" y2="582.9453125" /><line stroke="black" style="stroke-width: 0.11764899999999995" x1="573.15625" x2="571.890625" y1="583.65625" y2="587.3984375" /><polygon fill="red" opacity="0.20" points="573.15625,583.65625 571.890625,587.3984375 577.953125,582.9453125" /><line stroke="black" style="stroke-width: 0.08235429999999996" x1="575.5546875" x2="572.5234375" y1="583.30078125" y2="585.52734375" /><line stroke="black" style="stroke-width: 0.08235429999999996" x1="574.921875" x2="572.5234375" y1="585.171875" y2="585.52734375" /><line stroke="black" style="stroke-width: 0.08235429999999996" x1="574.921875" x2="575.5546875" y1="585.171875" y2="583.30078125" /><polygon fill="blue" opacity="0.20" points="574.921875,585.171875 575.5546875,583.30078125 572.5234375,585.52734375" /><line stroke="black" style="stroke-width: 0.05764800999999997" x1="573.72265625" x2="575.23828125" y1="585.349609375" y2="584.236328125" /><line stroke="black" style="stroke-width: 0.05764800999999997" x1="574.0390625" x2="575.23828125" y1="584.4140625" y2="584.236328125" /><line stroke="black" style="stroke-width: 0.05764800999999997" x1="574.0390625" x2="573.72265625" y1="584.4140625" y2="585.349609375" /><polygon fill="red" opacity="0.20" points="574.0390625,584.4140625 573.72265625,585.349609375 575.23828125,584.236328125" /><line stroke="black" style="stroke-width: 0.04035360699999998" x1="574.638671875" x2="573.880859375" y1="584.3251953125" y2="584.8818359375" /><line stroke="black" style="stroke-width: 0.04035360699999998" x1="574.48046875" x2="573.880859375" y1="584.79296875" y2="584.8818359375" /><line stroke="black" style="stroke-width: 0.04035360699999998" x1="574.48046875" x2="574.638671875" y1="584.79296875" y2="584.3251953125" /><polygon fill="blue" opacity="0.20" points="574.48046875,584.79296875 574.638671875,584.3251953125 573.880859375,584.8818359375" /></svg>