<?xml version="1.0" encoding="utf-8" ?>
<svg baseProfile="full" height="1000" version="1.1" width="1000" xmlns="http://www.w3.org/2000/svg" xmlns:ev="http://www.w3.org/2001/xml-events" xmlns:xlink="http://www.w3.org/1999/xlink"><defs /><line stroke="black" style="stroke-width: 1" x1="129.0" x2="574.0" y1="948.0" y2="607.0" /><line stroke="black" style="stroke-width: 1" x1="789.0" x2="574.0" y1="941.0" y2="607.0" /><line stroke="black" style="stroke-width: 1" x1="789.0" x2="129.0" y1="941.0" y2="948.0" /><polygon fill="blue" opacity="0.20" points="789.0,941.0 129.0,948.0 574.0,607.0" /><line stroke="black" style="stroke-width: 1" x1="681.5" x2="459.0" y1="774.0" y2="944.5" /><line stroke="black" style="stroke-width: 1" x1="351.5" x2="459.0" y1="777.5" y2="944.5" /><line stroke="black" style="stroke-width: 1" x1="351.5" x2="681.5" y1="777.5" y2="774.0" /><polygon fill="red" opacity="0.20" points="351.5,777.5 681.5,774.0 459.0,944.5" /><line stroke="black" style="stroke-width: 0.7" x1="405.25" x2="516.5" y1="861.0" y2="775.75" /><line stroke="black" style="stroke-width: 0.7" x1="570.25" x2="516.5" y1="859.25" y2="775.75" /><line stroke="black" style="stroke-width: 0.7" x1="570.25" x2="405.25" y1="859.25" y2="861.0" /><polygon fill="blue" opacity="0.20" points="570.25,859.25 405.25,861.0 516.5,775.75" /><line stroke="black" style="stroke-width: 0.48999999999999994" x1="543.375" x2="487.75" y1="817.5" y2="860.125" /><line stroke="black" style="stroke-width: 0.48999999999999994" x1="460.875" x2="487.75" y1="818.375" y2="860.125" /><line stroke="black" style="stroke-width: 0.48999999999999994" x1="460.875" x2="543.375" y1="818.375" y2="817.5" /><polygon fill="red" opacity="0.20" points="460.875,818.375 543.375,817.5 487.75,860.125" /><line stroke="black" style="stroke-width: 0.3429999999999999" x1="474.3125" x2="502.125" y1="839.25" y2="817.9375" /><line stroke="black" style="stroke-width: 0.3429999999999999" x1="515.5625" x2="502.125" y1="838.8125" y2="817.9375" /><line stroke="black" style="stroke-width: 0.3429999999999999" x1="515.5625" x2="474.3125" y1="838.8125" y2="839.25" /><polygon fill="blue" opacity="0.20" points="515.5625,838.8125 474.3125,839.25 502.125,817.9375" /><line stroke="black" style="stroke-width: 0.24009999999999992" x1="508.84375" x2="494.9375" y1="828.375" y2="839.03125" /><line stroke="black" style="stroke-width: 0.24009999999999992" x1="488.21875" x2="494.9375" y1="828.59375" y2="839.03125" /><line stroke="black" style="stroke-width: 0.24009999999999992" x1="488.21875" x2="508.84375" y1="828.59375" y2="828.375" /><polygon fill="red" opacity="0.20" points="488.21875,828.59375 508.84375,828.375 494.9375,839.03125" /><line stroke="black" style="stroke-width: 0.16806999999999994" x1="491.578125" x2="498.53125" y1="833.8125" y2="828.484375" /><line stroke="black" style="stroke-width: 0.16806999999999994" x1="501.890625" x2="498.53125" y1="833.703125" y2="828.484375" /><line stroke="black" style="stroke-width: 0.16806999999999994" x1="501.890625" x2="491.578125" y1="833.703125" y2="833.8125" /><polygon fill="blue" opacity="0.20" points="501.890625,833.703125 491.578125,833.8125 498.53125,828.484375" /><line stroke="black" style="stroke-width: 0.11764899999999995" x1="500.2109375" x2="496.734375" y1="831.09375" y2="833.7578125" /><line stroke="black" style="stroke-width: 0.11764899999999995" x1="495.0546875" x2="496.734375" y1="831.1484375" y2="833.7578125" /><line stroke="black" style="stroke-width: 0.11764899999999995" x1="495.0546875" x2="500.2109375" y1="831.1484375" y2="831.09375" /><polygon fill="red" opacity="0.20" points="495.0546875,831.1484375 500.2109375,831.09375 496.734375,833.7578125" /><line stroke="black" style="stroke-width: 0.08235429999999996" x1="495.89453125" x2="497.6328125" y1="832.453125" y2="831.12109375" /><line stroke="black" style="stroke-width: 0.08235429999999996" x1="498.47265625" x2="497.6328125" y1="832.42578125" y2="831.12109375" /><line stroke="black" style="stroke-width: 0.08235429999999996" x1="498.47265625" x2="495.89453125" y1="832.42578125" y2="832.453125" /><polygon fill="blue" opacity="0.20" points="498.47265625,832.42578125 495.89453125,832.453125 497.6328125,831.12109375" /><line stroke="black" style="stroke-width: 0.05764800999999997" x1="498.052734375" x2="497.18359375" y1="831.7734375" y2="832.439453125" /><line stroke="black" style="stroke-width: 0.05764800999999997" x1="496.763671875" x2="497.18359375" y1="831.787109375" y2="832.439453125" /><line stroke="black" style="stroke-width: 0.05764800999999997" x1="496.763671875" x2="498.052734375" y1="831.787109375" y2="831.7734375" /><polygon fill="red" opacity="0.20" points="496.763671875,831.787109375 498.052734375,831.7734375 497.18359375,832.439453125" /><line stroke="black" style="stroke-width: 0.04035360699999998" x1="496.9736328125" x2="497.408203125" y1="832.11328125" y2="831.7802734375" /><line stroke="black" style="stroke-width: 0.04035360699999998" x1="497.6181640625" x2="497.408203125" y1="832.1064453125" y2="831.7802734375" /><line stroke="black" style="stroke-width: 0.04035360699999998" x1="497.6181640625" x2="496.9736328125" y1="832.1064453125" y2="832.11328125" /><polygon fill="blue" opacity="0.20" points="497.6181640625,832.1064453125 496.9736328125,832.11328125 497.408203125,831.7802734375" /></svg>