<?xml version="1.0" encoding="utf-8" ?>
<svg baseProfile="full" height="1000" version="1.1" width="1000" xmlns="http://www.w3.org/2000/svg" xmlns:ev="http://www.w3.org/2001/xml-events" xmlns:xlink="http://www.w3.org/1999/xlink"><defs /><line stroke="black" style="stroke-width: 1" x1="888.0" x2="684.0" y1="400.0" y2="443.0" /><line stroke="black" style="stroke-width: 1" x1="248.0" x2="684.0" y1="12.0" y2="443.0" /><line stroke="black" style="stroke-width: 1" x1="248.0" x2="888.0" y1="12.0" y2="400.0" /><polygon fill="blue" opacity="0.20" points="248.0,12.0 888.0,400.0 684.0,443.0" /><line stroke="black" style="stroke-width: 1" x1="657.9971375409326" x2="740.9873627053506" y1="417.29533550491794" y2="310.8735886401191" /><line stroke="black" style="stroke-width: 1" x1="719.7771973421873" x2="740.9873627053506" y1="435.45872801082544" y2="310.8735886401191" /><line stroke="black" style="stroke-width: 1" x1="719.7771973421873" x2="657.9971375409326" y1="435.45872801082544" y2="417.29533550491794" /><polygon fill="red" opacity="0.20" points="719.7771973421873,435.45872801082544 657.9971375409326,417.29533550491794 740.9873627053506,310.8735886401191" /><line stroke="black" style="stroke-width: 0.7" x1="724.4611280440141" x2="693.0018728047194" y1="407.9460637153058" y2="427.586758792737" /><line stroke="black" style="stroke-width: 0.7" x1="680.4341786790706" x2="693.0018728047194" y1="388.523403537415" y2="427.586758792737" /><line stroke="black" style="stroke-width: 0.7" x1="680.4341786790706" x2="724.4611280440141" y1="388.523403537415" y2="407.9460637153058" /><polygon fill="blue" opacity="0.20" points="680.4341786790706,388.523403537415 724.4611280440141,407.9460637153058 693.0018728047194,427.586758792737" /><line stroke="black" style="stroke-width: 0.48999999999999994" x1="688.407672204251" x2="704.2538598468005" y1="413.30690058038743" y2="399.0315486517113" /><line stroke="black" style="stroke-width: 0.48999999999999994" x1="705.726319488546" x2="704.2538598468005" y1="419.64261086408385" y2="399.0315486517113" /><line stroke="black" style="stroke-width: 0.48999999999999994" x1="705.726319488546" x2="688.407672204251" y1="419.64261086408385" y2="413.30690058038743" /><polygon fill="red" opacity="0.20" points="705.726319488546,419.64261086408385 688.407672204251,413.30690058038743 704.2538598468005,399.0315486517113" /><line stroke="black" style="stroke-width: 0.3429999999999999" x1="705.0929485878795" x2="697.3790198509623" y1="410.7768690352037" y2="416.5889039961697" /><line stroke="black" style="stroke-width: 0.3429999999999999" x1="695.5051668395176" x2="697.3790198509623" y1="406.91298199152544" y2="416.5889039961697" /><line stroke="black" style="stroke-width: 0.3429999999999999" x1="695.5051668395176" x2="705.0929485878795" y1="406.91298199152544" y2="410.7768690352037" /><polygon fill="blue" opacity="0.20" points="695.5051668395176,406.91298199152544 705.0929485878795,410.7768690352037 697.3790198509623,416.5889039961697" /><line stroke="black" style="stroke-width: 0.24009999999999992" x1="696.5066126934487" x2="700.3905620682066" y1="412.0840983573078" y2="408.8818018731957" /><line stroke="black" style="stroke-width: 0.24009999999999992" x1="701.0437508991171" x2="700.3905620682066" y1="413.8277240966889" y2="408.8818018731957" /><line stroke="black" style="stroke-width: 0.24009999999999992" x1="701.0437508991171" x2="696.5066126934487" y1="413.8277240966889" y2="412.0840983573078" /><polygon fill="red" opacity="0.20" points="701.0437508991171,413.8277240966889 696.5066126934487,412.0840983573078 700.3905620682066,408.8818018731957" /><line stroke="black" style="stroke-width: 0.16806999999999994" x1="700.7284961719463" x2="698.7961815097011" y1="411.44062669484396" y2="412.9639814331938" /><line stroke="black" style="stroke-width: 0.16806999999999994" x1="698.3991206484435" x2="698.7961815097011" y1="410.5237351842428" y2="412.9639814331938" /><line stroke="black" style="stroke-width: 0.16806999999999994" x1="698.3991206484435" x2="700.7284961719463" y1="410.5237351842428" y2="411.44062669484396" /><polygon fill="blue" opacity="0.20" points="698.3991206484435,410.5237351842428 700.7284961719463,411.44062669484396 698.7961815097011,412.9639814331938" /><line stroke="black" style="stroke-width: 0.11764899999999995" x1="698.6010843120066" x2="699.5692796500048" y1="411.7649581818504" y2="410.98433453533755" /><line stroke="black" style="stroke-width: 0.11764899999999995" x1="699.750168491401" x2="699.5692796500048" y1="412.2118986501506" y2="410.98433453533755" /><line stroke="black" style="stroke-width: 0.11764899999999995" x1="699.750168491401" x2="698.6010843120066" y1="412.2118986501506" y2="411.7649581818504" /><polygon fill="red" opacity="0.20" points="699.750168491401,412.2118986501506 698.6010843120066,411.7649581818504 699.5692796500048,410.98433453533755" /><line stroke="black" style="stroke-width: 0.08235429999999996" x1="699.6605076884027" x2="699.1769657694392" y1="411.60343444965974" y2="411.98894936795216" /><line stroke="black" style="stroke-width: 0.08235429999999996" x1="699.0821161825726" x2="699.1769657694392" y1="411.3771182097446" y2="411.98894936795216" /><line stroke="black" style="stroke-width: 0.08235429999999996" x1="699.0821161825726" x2="699.6605076884027" y1="411.3771182097446" y2="411.60343444965974" /><polygon fill="blue" opacity="0.20" points="699.0821161825726,411.3771182097446 699.6605076884027,411.60343444965974 699.1769657694392,411.98894936795216" /><line stroke="black" style="stroke-width: 0.05764800999999997" x1="699.1297462187993" x2="699.371650282623" y1="411.6843577158964" y2="411.4904087200419" /><line stroke="black" style="stroke-width: 0.05764800999999997" x1="699.4179732621444" x2="699.371650282623" y1="411.796800600258" y2="411.4904087200419" /><line stroke="black" style="stroke-width: 0.05764800999999997" x1="699.4179732621444" x2="699.1297462187993" y1="411.796800600258" y2="411.6843577158964" /><polygon fill="red" opacity="0.20" points="699.4179732621444,411.796800600258 699.1297462187993,411.6843577158964 699.371650282623,411.4904087200419" /><line stroke="black" style="stroke-width: 0.04035360699999998" x1="699.3948619159833" x2="699.2739438859784" y1="411.6439363226619" y2="411.74061198484577" /><line stroke="black" style="stroke-width: 0.04035360699999998" x1="699.2505070165049" x2="699.2739438859784" y1="411.58753654190434" y2="411.74061198484577" /><line stroke="black" style="stroke-width: 0.04035360699999998" x1="699.2505070165049" x2="699.3948619159833" y1="411.58753654190434" y2="411.6439363226619" /><polygon fill="blue" opacity="0.20" points="699.2505070165049,411.58753654190434 699.3948619159833,411.6439363226619 699.2739438859784,411.74061198484577" /></svg>