<?xml version="1.0" encoding="utf-8" ?>
<svg baseProfile="full" height="1000" version="1.1" width="1000" xmlns="http://www.w3.org/2000/svg" xmlns:ev="http://www.w3.org/2001/xml-events" xmlns:xlink="http://www.w3.org/1999/xlink"><defs /><line stroke="black" style="stroke-width: 1" x1="556.0" x2="106.0" y1="226.0" y2="310.0" /><line stroke="black" style="stroke-width: 1" x1="796.0" x2="106.0" y1="922.0" y2="310.0" /><line stroke="black" style="stroke-width: 1" x1="796.0" x2="556.0" y1="922.0" y2="226.0" /><polygon fill="blue" opacity="0.20" points="796.0,922.0 556.0,226.0 106.0,310.0" /><line stroke="black" style="stroke-width: 1" x1="346.84411787269954" x2="600.2836487271833" y1="523.6182610697003" y2="354.42258130884" /><line stroke="black" style="stroke-width: 1" x1="422.4632898585788" x2="600.2836487271833" y1="250.92685255973262" y2="354.42258130884" /><line stroke="black" style="stroke-width: 1" x1="422.4632898585788" x2="346.84411787269954" y1="250.92685255973262" y2="523.6182610697003" /><polygon fill="red" opacity="0.20" points="422.4632898585788,250.92685255973262 346.84411787269954,523.6182610697003 600.2836487271833,354.42258130884" /><line stroke="black" style="stroke-width: 0.7" x1="501.97655949117745" x2="397.87871804871133" y1="297.2054892592095" y2="339.5816386197774" /><line stroke="black" style="stroke-width: 0.7" x1="505.68219941803125" x2="397.87871804871133" y1="417.57830318165253" y2="339.5816386197774" /><line stroke="black" style="stroke-width: 0.7" x1="505.68219941803125" x2="501.97655949117745" y1="417.57830318165253" y2="297.2054892592095" /><polygon fill="blue" opacity="0.20" points="505.68219941803125,417.57830318165253 501.97655949117745,297.2054892592095 397.87871804871133,339.5816386197774" /><line stroke="black" style="stroke-width: 0.48999999999999994" x1="448.52463910064733" x2="503.5114042987875" y1="376.22435985233363" y2="347.06289366805754" /><line stroke="black" style="stroke-width: 0.48999999999999994" x1="455.77684115137856" x2="503.5114042987875" y1="316.01247063034356" y2="347.06289366805754" /><line stroke="black" style="stroke-width: 0.48999999999999994" x1="455.77684115137856" x2="448.52463910064733" y1="316.01247063034356" y2="376.22435985233363" /><polygon fill="red" opacity="0.20" points="455.77684115137856,316.01247063034356 448.52463910064733,376.22435985233363 503.5114042987875,347.06289366805754" /><line stroke="black" style="stroke-width: 0.3429999999999999" x1="478.9760779940101" x2="452.4673942007624" y1="331.1031317911304" y2="343.4893737533539" /><line stroke="black" style="stroke-width: 0.3429999999999999" x1="477.65337575778403" x2="452.4673942007624" y1="360.7763394794843" y2="343.4893737533539" /><line stroke="black" style="stroke-width: 0.3429999999999999" x1="477.65337575778403" x2="478.9760779940101" y1="360.7763394794843" y2="331.1031317911304" /><polygon fill="blue" opacity="0.20" points="477.65337575778403,360.7763394794843 478.9760779940101,331.1031317911304 452.4673942007624,343.4893737533539" /><line stroke="black" style="stroke-width: 0.24009999999999992" x1="464.87776947083654" x2="478.34340935505463" y1="352.00751434900815" y2="345.29627927927027" /><line stroke="black" style="stroke-width: 0.24009999999999992" x1="466.1046053086264" x2="478.34340935505463" y1="337.11735627449895" y2="345.29627927927027" /><line stroke="black" style="stroke-width: 0.24009999999999992" x1="466.1046053086264" x2="464.87776947083654" y1="337.11735627449895" y2="352.00751434900815" /><polygon fill="red" opacity="0.20" points="466.1046053086264,337.11735627449895 464.87776947083654,352.00751434900815 478.34340935505463,345.29627927927027" /><line stroke="black" style="stroke-width: 0.16806999999999994" x1="472.18044496023515" x2="465.50454089846005" y1="341.17770600404964" y2="344.4003632154752" /><line stroke="black" style="stroke-width: 0.16806999999999994" x1="471.70924248446687" x2="465.50454089846005" y1="348.60272841523386" y2="344.4003632154752" /><line stroke="black" style="stroke-width: 0.16806999999999994" x1="471.70924248446687" x2="472.18044496023515" y1="348.60272841523386" y2="341.17770600404964" /><polygon fill="blue" opacity="0.20" points="471.70924248446687,348.60272841523386 472.18044496023515,341.17770600404964 465.50454089846005,344.4003632154752" /><line stroke="black" style="stroke-width: 0.11764899999999995" x1="468.59574911177606" x2="471.9474034815027" y1="346.49399908833453" y2="344.8498815364812" /><line stroke="black" style="stroke-width: 0.11764899999999995" x1="468.86677126276817" x2="471.9474034815027" y1="342.777314736985" y2="344.8498815364812" /><line stroke="black" style="stroke-width: 0.11764899999999995" x1="468.86677126276817" x2="468.59574911177606" y1="342.777314736985" y2="346.49399908833453" /><polygon fill="red" opacity="0.20" points="468.86677126276817,342.777314736985 468.59574911177606,346.49399908833453 471.9474034815027,344.8498815364812" /><line stroke="black" style="stroke-width: 0.08235429999999996" x1="470.40433379489014" x2="468.7319970281744" y1="343.81174560375655" y2="344.62555218494157" /><line stroke="black" style="stroke-width: 0.08235429999999996" x1="470.27769283296715" x2="468.7319970281744" y1="345.6689399121192" y2="344.62555218494157" /><line stroke="black" style="stroke-width: 0.08235429999999996" x1="470.27769283296715" x2="470.40433379489014" y1="345.6689399121192" y2="343.81174560375655" /><polygon fill="blue" opacity="0.20" points="470.27769283296715,345.6689399121192 470.40433379489014,343.81174560375655 468.7319970281744,344.62555218494157" /><line stroke="black" style="stroke-width: 0.05764800999999997" x1="469.5041525640189" x2="470.34118538698675" y1="345.1467786818439" y2="344.7378193003342" /><line stroke="black" style="stroke-width: 0.05764800999999997" x1="469.56968860509505" x2="470.34118538698675" y1="344.21790766508883" y2="344.7378193003342" /><line stroke="black" style="stroke-width: 0.05764800999999997" x1="469.56968860509505" x2="469.5041525640189" y1="344.21790766508883" y2="345.1467786818439" /><polygon fill="red" opacity="0.20" points="469.56968860509505,344.21790766508883 469.5041525640189,345.1467786818439 470.34118538698675,344.7378193003342" /><line stroke="black" style="stroke-width: 0.04035360699999998" x1="469.95526440318883" x2="469.5369651183714" y1="344.4777471723748" y2="344.68171197623974" /><line stroke="black" style="stroke-width: 0.04035360699999998" x1="469.92305051196587" x2="469.5369651183714" y1="344.9421125791421" y2="344.68171197623974" /><line stroke="black" style="stroke-width: 0.04035360699999998" x1="469.92305051196587" x2="469.95526440318883" y1="344.9421125791421" y2="344.4777471723748" /><polygon fill="blue" opacity="0.20" points="469.92305051196587,344.9421125791421 469.95526440318883,344.4777471723748 469.5369651183714,344.68171197623974" /></svg>