<?xml version="1.0" encoding="utf-8" ?>
<svg baseProfile="full" height="1000" version="1.1" width="1000" xmlns="http://www.w3.org/2000/svg" xmlns:ev="http://www.w3.org/2001/xml-events" xmlns:xlink="http://www.w3.org/1999/xlink"><defs /><line stroke="black" style="stroke-width: 1" x1="258.0" x2="664.0" y1="528.0" y2="908.0" /><line stroke="black" style="stroke-width: 1" x1="380.0" x2="664.0" y1="214.0" y2="908.0" /><line stroke="black" style="stroke-width: 1" x1="380.0" x2="258.0" y1="214.0" y2="528.0" /><polygon fill="blue" opacity="0.20" points="380.0,214.0 258.0,528.0 664.0,908.0" /><line stroke="black" style="stroke-width: 1" x1="480.4862929758365" x2="283.9119003370138" y1="459.55453283531045" y2="461.3087155260431" /><line stroke="black" style="stroke-width: 1" x1="310.237226171808" x2="283.9119003370138" y1="576.8919850869055" y2="461.3087155260431" /><line stroke="black" style="stroke-width: 1" x1="310.237226171808" x2="480.4862929758365" y1="576.8919850869055" y2="459.55453283531045" /><polygon fill="red" opacity="0.20" points="310.237226171808,576.8919850869055 480.4862929758365,459.55453283531045 283.9119003370138,461.3087155260431" /><line stroke="black" style="stroke-width: 0.7" x1="295.94361654930196" x2="363.23376835210456" y1="514.1348460351743" y2="540.3662093260272" /><line stroke="black" style="stroke-width: 0.7" x1="338.0887267949193" x2="363.23376835210456" y1="460.8252545322921" y2="540.3662093260272" /><line stroke="black" style="stroke-width: 0.7" x1="338.0887267949193" x2="295.94361654930196" y1="460.8252545322921" y2="514.1348460351743" /><polygon fill="blue" opacity="0.20" points="338.0887267949193,460.8252545322921 295.94361654930196,514.1348460351743 363.23376835210456,540.3662093260272" /><line stroke="black" style="stroke-width: 0.48999999999999994" x1="350.0183935415146" x2="313.5436176660948" y1="498.5622008498039" y2="491.8725037487472" /><line stroke="black" style="stroke-width: 0.48999999999999994" x1="322.38468019345964" x2="313.5436176660948" y1="524.4422257581251" y2="491.8725037487472" /><line stroke="black" style="stroke-width: 0.48999999999999994" x1="322.38468019345964" x2="350.0183935415146" y1="524.4422257581251" y2="498.5622008498039" /><polygon fill="red" opacity="0.20" points="322.38468019345964,524.4422257581251 350.0183935415146,498.5622008498039 313.5436176660948,491.8725037487472" /><line stroke="black" style="stroke-width: 0.3429999999999999" x1="317.8623639740911" x2="334.9845164111185" y1="507.78239763809756" y2="512.6419993084086" /><line stroke="black" style="stroke-width: 0.3429999999999999" x1="329.7587909079561" x2="334.9845164111185" y1="494.8464657492171" y2="512.6419993084086" /><line stroke="black" style="stroke-width: 0.3429999999999999" x1="329.7587909079561" x2="317.8623639740911" y1="494.8464657492171" y2="507.78239763809756" /><polygon fill="blue" opacity="0.20" points="329.7587909079561,494.8464657492171 317.8623639740911,507.78239763809756 334.9845164111185,512.6419993084086" /><line stroke="black" style="stroke-width: 0.24009999999999992" x1="332.34010890792206" x2="323.5572342405423" y1="503.636810949621" y2="501.5899119201544" /><line stroke="black" style="stroke-width: 0.24009999999999992" x1="325.9556950641124" x2="323.5572342405423" y1="510.0794432594374" y2="501.5899119201544" /><line stroke="black" style="stroke-width: 0.24009999999999992" x1="325.9556950641124" x2="332.34010890792206" y1="510.0794432594374" y2="503.636810949621" /><polygon fill="red" opacity="0.20" points="325.9556950641124,510.0794432594374 332.34010890792206,503.636810949621 323.5572342405423,501.5899119201544" /><line stroke="black" style="stroke-width: 0.16806999999999994" x1="324.7494035704782" x2="329.07877729867954" y1="505.80968436285804" y2="506.92788212902803" /><line stroke="black" style="stroke-width: 0.16806999999999994" x1="327.82773709948196" x2="329.07877729867954" y1="502.585176965866" y2="506.92788212902803" /><line stroke="black" style="stroke-width: 0.16806999999999994" x1="327.82773709948196" x2="324.7494035704782" y1="502.585176965866" y2="505.80968436285804" /><polygon fill="blue" opacity="0.20" points="327.82773709948196,502.585176965866 324.7494035704782,505.80968436285804 329.07877729867954,506.92788212902803" /><line stroke="black" style="stroke-width: 0.11764899999999995" x1="328.45139314425313" x2="326.2720442681682" y1="504.75005889959374" y2="504.21474146716736" /><line stroke="black" style="stroke-width: 0.11764899999999995" x1="326.8843983109996" x2="326.2720442681682" y1="506.3611143154467" y2="504.21474146716736" /><line stroke="black" style="stroke-width: 0.11764899999999995" x1="326.8843983109996" x2="328.45139314425313" y1="506.3611143154467" y2="504.75005889959374" /><polygon fill="red" opacity="0.20" points="326.8843983109996,506.3611143154467 328.45139314425313,504.75005889959374 326.2720442681682,504.21474146716736" /><line stroke="black" style="stroke-width: 0.08235429999999996" x1="326.5777678815276" x2="327.66367191605156" y1="505.2863386424649" y2="505.55992918374955" /><line stroke="black" style="stroke-width: 0.08235429999999996" x1="327.354230697981" x2="327.66367191605156" y1="504.480560890251" y2="505.55992918374955" /><line stroke="black" style="stroke-width: 0.08235429999999996" x1="327.354230697981" x2="326.5777678815276" y1="504.480560890251" y2="505.2863386424649" /><polygon fill="blue" opacity="0.20" points="327.354230697981,504.480560890251 326.5777678815276,505.2863386424649 327.66367191605156,505.55992918374955" /><line stroke="black" style="stroke-width: 0.05764800999999997" x1="327.50883639578615" x2="326.96495500046393" y1="505.0198442127663" y2="504.88453348222254" /><line stroke="black" style="stroke-width: 0.05764800999999997" x1="327.1188561847124" x2="326.96495500046393" y1="505.4226643554598" y2="504.88453348222254" /><line stroke="black" style="stroke-width: 0.05764800999999997" x1="327.1188561847124" x2="327.50883639578615" y1="505.4226643554598" y2="505.0198442127663" /><polygon fill="red" opacity="0.20" points="327.1188561847124,505.4226643554598 327.50883639578615,505.0198442127663 326.96495500046393,504.88453348222254" /><line stroke="black" style="stroke-width: 0.04035360699999998" x1="327.04187706069615" x2="327.31358376803496" y1="505.15349915425116" y2="505.22152544982566" /><line stroke="black" style="stroke-width: 0.04035360699999998" x1="327.2364287440803" x2="327.31358376803496" y1="504.9520726753077" y2="505.22152544982566" /><line stroke="black" style="stroke-width: 0.04035360699999998" x1="327.2364287440803" x2="327.04187706069615" y1="504.9520726753077" y2="505.15349915425116" /><polygon fill="blue" opacity="0.20" points="327.2364287440803,504.9520726753077 327.04187706069615,505.15349915425116 327.31358376803496,505.22152544982566" /></svg>