<?xml version="1.0" encoding="utf-8" ?>
<svg baseProfile="full" height="1000" version="1.1" width="1000" xmlns="http://www.w3.org/2000/svg" xmlns:ev="http://www.w3.org/2001/xml-events" xmlns:xlink="http://www.w3.org/1999/xlink"><defs /><line stroke="black" style="stroke-width: 1" x1="169.0" x2="583.0" y1="58.0" y2="624.0" /><line stroke="black" style="stroke-width: 1" x1="487.0" x2="583.0" y1="11.0" y2="624.0" /><line stroke="black" style="stroke-width: 1" x1="487.0" x2="169.0" y1="11.0" y2="58.0" /><polygon fill="blue" opacity="0.20" points="487.0,11.0 169.0,58.0 583.0,624.0" /><line stroke="black" style="stroke-width: 1" x1="496.953509443203" x2="362.6423275888457" y1="74.55730509045273" y2="29.379907557623437" /><line stroke="black" style="stroke-width: 1" x1="257.0248982215556" x2="362.6423275888457" y1="178.34321834154704" y2="29.379907557623437" /><line stroke="black" style="stroke-width: 1" x1="257.0248982215556" x2="496.953509443203" y1="178.34321834154704" y2="74.55730509045273" /><polygon fill="red" opacity="0.20" points="257.0248982215556,178.34321834154704 496.953509443203,74.55730509045273 362.6423275888457,29.379907557623437" /><line stroke="black" style="stroke-width: 0.7" x1="351.69166008286203" x2="403.12657976909594" y1="44.82477964698597" y2="115.14401767212867" /><line stroke="black" style="stroke-width: 0.7" x1="391.19964187083804" x2="403.12657976909594" y1="38.98554963429442" y2="115.14401767212867" /><line stroke="black" style="stroke-width: 0.7" x1="391.19964187083804" x2="351.69166008286203" y1="38.98554963429442" y2="44.82477964698597" /><polygon fill="blue" opacity="0.20" points="391.19964187083804,38.98554963429442 351.69166008286203,44.82477964698597 403.12657976909594,115.14401767212867" /><line stroke="black" style="stroke-width: 0.48999999999999994" x1="392.4362552978961" x2="375.7495769123299" y1="46.88184162167215" y2="41.26904980111108" /><line stroke="black" style="stroke-width: 0.48999999999999994" x1="362.6277798181438" x2="375.7495769123299" y1="59.776093101493025" y2="41.26904980111108" /><line stroke="black" style="stroke-width: 0.48999999999999994" x1="362.6277798181438" x2="392.4362552978961" y1="59.776093101493025" y2="46.88184162167215" /><polygon fill="red" opacity="0.20" points="362.6277798181438,59.776093101493025 392.4362552978961,46.88184162167215 375.7495769123299,41.26904980111108" /><line stroke="black" style="stroke-width: 0.3429999999999999" x1="374.3890776280959" x2="380.77929734578316" y1="43.18790428291438" y2="51.92429162640785" /><line stroke="black" style="stroke-width: 0.3429999999999999" x1="379.2975072663073" x2="380.77929734578316" y1="42.46244455652799" y2="51.92429162640785" /><line stroke="black" style="stroke-width: 0.3429999999999999" x1="379.2975072663073" x2="374.3890776280959" y1="42.46244455652799" y2="43.18790428291438" /><polygon fill="blue" opacity="0.20" points="379.2975072663073,42.46244455652799 374.3890776280959,43.18790428291438 380.77929734578316,51.92429162640785" /><line stroke="black" style="stroke-width: 0.24009999999999992" x1="379.45114280326936" x2="377.3780076279566" y1="43.443471474836535" y2="42.746144188606664" /><line stroke="black" style="stroke-width: 0.24009999999999992" x1="375.74776951278955" x2="377.3780076279566" y1="45.04543956488124" y2="42.746144188606664" /><line stroke="black" style="stroke-width: 0.24009999999999992" x1="375.74776951278955" x2="379.45114280326936" y1="45.04543956488124" y2="43.443471474836535" /><polygon fill="red" opacity="0.20" points="375.74776951278955,45.04543956488124 379.45114280326936,43.443471474836535 377.3780076279566,42.746144188606664" /><line stroke="black" style="stroke-width: 0.16806999999999994" x1="377.2089806438686" x2="378.002894745201" y1="42.984540628598715" y2="44.069940100471015" /><line stroke="black" style="stroke-width: 0.16806999999999994" x1="377.81879872168867" x2="378.002894745201" y1="42.894410283770114" y2="44.069940100471015" /><line stroke="black" style="stroke-width: 0.16806999999999994" x1="377.81879872168867" x2="377.2089806438686" y1="42.894410283770114" y2="42.984540628598715" /><polygon fill="blue" opacity="0.20" points="377.81879872168867,42.894410283770114 377.2089806438686,42.984540628598715 378.002894745201,44.069940100471015" /><line stroke="black" style="stroke-width: 0.11764899999999995" x1="377.8378862373997" x2="377.58032212812384" y1="43.016292024712094" y2="42.92965682432161" /><line stroke="black" style="stroke-width: 0.11764899999999995" x1="377.3777830785669" x2="377.58032212812384" y1="43.21531883641621" y2="42.92965682432161" /><line stroke="black" style="stroke-width: 0.11764899999999995" x1="377.3777830785669" x2="377.8378862373997" y1="43.21531883641621" y2="43.016292024712094" /><polygon fill="red" opacity="0.20" points="377.3777830785669,43.21531883641621 377.8378862373997,43.016292024712094 377.58032212812384,42.92965682432161" /><line stroke="black" style="stroke-width: 0.08235429999999996" x1="377.5593223953746" x2="377.6579574389519" y1="42.959274944488214" y2="43.0941238204812" /><line stroke="black" style="stroke-width: 0.08235429999999996" x1="377.6350855447995" x2="377.6579574389519" y1="42.948077246292236" y2="43.0941238204812" /><line stroke="black" style="stroke-width: 0.08235429999999996" x1="377.6350855447995" x2="377.5593223953746" y1="42.948077246292236" y2="42.959274944488214" /><polygon fill="blue" opacity="0.20" points="377.6350855447995,42.948077246292236 377.5593223953746,42.959274944488214 377.6579574389519,43.0941238204812" /><line stroke="black" style="stroke-width: 0.05764800999999997" x1="377.6374569574524" x2="377.6054574664408" y1="42.96321970416081" y2="42.95245623900698" /><line stroke="black" style="stroke-width: 0.05764800999999997" x1="377.58029423032195" x2="377.6054574664408" y1="42.98794658357288" y2="42.95245623900698" /><line stroke="black" style="stroke-width: 0.05764800999999997" x1="377.58029423032195" x2="377.6374569574524" y1="42.98794658357288" y2="42.96321970416081" /><polygon fill="red" opacity="0.20" points="377.58029423032195,42.98794658357288 377.6374569574524,42.96321970416081 377.6054574664408,42.95245623900698" /><line stroke="black" style="stroke-width: 0.04035360699999998" x1="377.6028484819818" x2="377.6151027948891" y1="42.956135962744646" y2="42.972889443683975" /><line stroke="black" style="stroke-width: 0.04035360699999998" x1="377.61226121507815" x2="377.6151027948891" y1="42.95474477264139" y2="42.972889443683975" /><line stroke="black" style="stroke-width: 0.04035360699999998" x1="377.61226121507815" x2="377.6028484819818" y1="42.95474477264139" y2="42.956135962744646" /><polygon fill="blue" opacity="0.20" points="377.61226121507815,42.95474477264139 377.6028484819818,42.956135962744646 377.6151027948891,42.972889443683975" /></svg>