<?xml version="1.0" encoding="utf-8" ?>
<svg baseProfile="full" height="1000" version="1.1" width="1000" xmlns="http://www.w3.org/2000/svg" xmlns:ev="http://www.w3.org/2001/xml-events" xmlns:xlink="http://www.w3.org/1999/xlink"><defs /><line stroke="black" style="stroke-width: 1" x1="203.0" x2="567.0" y1="986.0" y2="357.0" /><line stroke="black" style="stroke-width: 1" x1="77.0" x2="567.0" y1="299.0" y2="357.0" /><line stroke="black" style="stroke-width: 1" x1="77.0" x2="203.0" y1="299.0" y2="986.0" /><polygon fill="blue" opacity="0.20" points="77.0,299.0 203.0,986.0 567.0,357.0" /><line stroke="black" style="stroke-width: 1" x1="306.3239964238226" x2="111.52017791949794" y1="326.14447304608535" y2="487.2171605610721" /><line stroke="black" style="stroke-width: 1" x1="455.6300103378765" x2="111.52017791949794" y1="549.449789828226" y2="487.2171605610721" /><line stroke="black" style="stroke-width: 1" x1="455.6300103378765" x2="306.3239964238226" y1="549.449789828226" y2="326.14447304608535" /><polygon fill="red" opacity="0.20" points="455.6300103378765,549.449789828226 306.3239964238226,326.14447304608535 111.52017791949794,487.2171605610721" /><line stroke="black" style="stroke-width: 0.7" x1="272.56638603973386" x2="347.22931519178957" y1="516.3425386253706" y2="387.3233561071057" /><line stroke="black" style="stroke-width: 0.7" x1="246.721525948623" x2="347.22931519178957" y1="375.4265157477165" y2="387.3233561071057" /><line stroke="black" style="stroke-width: 0.7" x1="246.721525948623" x2="272.56638603973386" y1="375.4265157477165" y2="516.3425386253706" /><polygon fill="blue" opacity="0.20" points="246.721525948623,375.4265157477165 272.56638603973386,516.3425386253706 347.22931519178957,387.3233561071057" /><line stroke="black" style="stroke-width: 0.48999999999999994" x1="293.75999105259115" x2="253.8022336363153" y1="380.9943340661417" y2="414.03323147345975" /><line stroke="black" style="stroke-width: 0.48999999999999994" x1="324.38533264285695" x2="253.8022336363153" y1="426.7982600172226" y2="414.03323147345975" /><line stroke="black" style="stroke-width: 0.48999999999999994" x1="324.38533264285695" x2="293.75999105259115" y1="426.7982600172226" y2="380.9943340661417" /><polygon fill="red" opacity="0.20" points="324.38533264285695,426.7982600172226 293.75999105259115,380.9943340661417 253.8022336363153,414.03323147345975" /><line stroke="black" style="stroke-width: 0.3429999999999999" x1="286.8356996447335" x2="302.150405660055" y1="420.0073689430784" y2="393.54322036170225" /><line stroke="black" style="stroke-width: 0.3429999999999999" x1="281.53445525484904" x2="302.150405660055" y1="391.1029650076458" y2="393.54322036170225" /><line stroke="black" style="stroke-width: 0.3429999999999999" x1="281.53445525484904" x2="286.8356996447335" y1="391.1029650076458" y2="420.0073689430784" /><polygon fill="blue" opacity="0.20" points="281.53445525484904,391.1029650076458 286.8356996447335,420.0073689430784 302.150405660055,393.54322036170225" /><line stroke="black" style="stroke-width: 0.24009999999999992" x1="291.18288818746544" x2="282.9868354098757" y1="392.24502441598446" y2="399.02189490056924" /><line stroke="black" style="stroke-width: 0.24009999999999992" x1="297.46469508144645" x2="282.9868354098757" y1="401.6402312241672" y2="399.02189490056924" /><line stroke="black" style="stroke-width: 0.24009999999999992" x1="297.46469508144645" x2="291.18288818746544" y1="401.6402312241672" y2="392.24502441598446" /><polygon fill="red" opacity="0.20" points="297.46469508144645,401.6402312241672 291.18288818746544,392.24502441598446 282.9868354098757,399.02189490056924" /><line stroke="black" style="stroke-width: 0.16806999999999994" x1="289.76259181709383" x2="292.90391272422113" y1="400.24729765507345" y2="394.8190260875185" /><line stroke="black" style="stroke-width: 0.16806999999999994" x1="288.6752115030931" x2="292.90391272422113" y1="394.3184859429403" y2="394.8190260875185" /><line stroke="black" style="stroke-width: 0.16806999999999994" x1="288.6752115030931" x2="289.76259181709383" y1="394.3184859429403" y2="400.24729765507345" /><polygon fill="blue" opacity="0.20" points="288.6752115030931,394.3184859429403 289.76259181709383,400.24729765507345 292.90391272422113,394.8190260875185" /><line stroke="black" style="stroke-width: 0.11764899999999995" x1="290.65427816375825" x2="288.9731207245727" y1="394.55274281299097" y2="395.94280050760403" /><line stroke="black" style="stroke-width: 0.11764899999999995" x1="291.94278943590945" x2="288.9731207245727" y1="396.47986825331816" y2="395.94280050760403" /><line stroke="black" style="stroke-width: 0.11764899999999995" x1="291.94278943590945" x2="290.65427816375825" y1="396.47986825331816" y2="394.55274281299097" /><polygon fill="red" opacity="0.20" points="291.94278943590945,396.47986825331816 290.65427816375825,394.55274281299097 288.9731207245727,395.94280050760403" /><line stroke="black" style="stroke-width: 0.08235429999999996" x1="290.3629499019829" x2="291.0072911666423" y1="396.19415259290315" y2="395.08071672624885" /><line stroke="black" style="stroke-width: 0.08235429999999996" x1="290.139908695017" x2="291.0072911666423" y1="394.9780469643014" y2="395.08071672624885" /><line stroke="black" style="stroke-width: 0.08235429999999996" x1="290.139908695017" x2="290.3629499019829" y1="394.9780469643014" y2="396.19415259290315" /><polygon fill="blue" opacity="0.20" points="290.139908695017,394.9780469643014 290.3629499019829,396.19415259290315 291.0072911666423,395.08071672624885" /><line stroke="black" style="stroke-width: 0.05764800999999997" x1="290.5458507660773" x2="290.20101521999993" y1="395.02609725025457" y2="395.31122301721126" /><line stroke="black" style="stroke-width: 0.05764800999999997" x1="290.8101475403182" x2="290.20101521999993" y1="395.42138524535756" y2="395.31122301721126" /><line stroke="black" style="stroke-width: 0.05764800999999997" x1="290.8101475403182" x2="290.5458507660773" y1="395.42138524535756" y2="395.02609725025457" /><polygon fill="red" opacity="0.20" points="290.8101475403182,395.42138524535756 290.5458507660773,395.02609725025457 290.20101521999993,395.31122301721126" /><line stroke="black" style="stroke-width: 0.04035360699999998" x1="290.48609411396916" x2="290.61826006503975" y1="395.36277983846435" y2="395.13439417025927" /><line stroke="black" style="stroke-width: 0.04035360699999998" x1="290.4403443616137" x2="290.61826006503975" y1="395.1133347604732" y2="395.13439417025927" /><line stroke="black" style="stroke-width: 0.04035360699999998" x1="290.4403443616137" x2="290.48609411396916" y1="395.1133347604732" y2="395.36277983846435" /><polygon fill="blue" opacity="0.20" points="290.4403443616137,395.1133347604732 290.48609411396916,395.36277983846435 290.61826006503975,395.13439417025927" /></svg>