<?xml version="1.0" encoding="utf-8" ?>
<svg baseProfile="full" height="1000" version="1.1" width="1000" xmlns="http://www.w3.org/2000/svg" xmlns:ev="http://www.w3.org/2001/xml-events" xmlns:xlink="http://www.w3.org/1999/xlink"><defs /><line stroke="black" style="stroke-width: 1" x1="420.0" x2="129.0" y1="779.0" y2="232.0" /><line stroke="black" style="stroke-width: 1" x1="58.0" x2="129.0" y1="987.0" y2="232.0" /><line stroke="black" style="stroke-width: 1" x1="58.0" x2="420.0" y1="987.0" y2="779.0" /><polygon fill="blue" opacity="0.20" points="58.0,987.0 420.0,779.0 129.0,232.0" /><line stroke="black" style="stroke-width: 1" x1="80.36950084005139" x2="300.0675994296122" y1="749.1271389543831" y2="847.9114345818803" /><line stroke="black" style="stroke-width: 1" x1="377.4068054751585" x2="300.0675994296122" y1="698.9365037625831" y2="847.9114345818803" /><line stroke="black" style="stroke-width: 1" x1="377.4068054751585" x2="80.36950084005139" y1="698.9365037625831" y2="749.1271389543831" /><polygon fill="red" opacity="0.20" points="377.4068054751585,698.9365037625831 80.36950084005139,749.1271389543831 300.0675994296122,847.9114345818803" /><line stroke="black" style="stroke-width: 0.7" x1="324.43435202969374" x2="278.99686900044674" y1="800.9748875380919" y2="715.5649108474047" /><line stroke="black" style="stroke-width: 0.7" x1="267.91074771152176" x2="278.99686900044674" y1="833.4525386380253" y2="715.5649108474047" /><line stroke="black" style="stroke-width: 0.7" x1="267.91074771152176" x2="324.43435202969374" y1="833.4525386380253" y2="800.9748875380919" /><polygon fill="blue" opacity="0.20" points="267.91074771152176,833.4525386380253 324.43435202969374,800.9748875380919 278.99686900044674,715.5649108474047" /><line stroke="black" style="stroke-width: 0.48999999999999994" x1="271.4035786901817" x2="305.7078007733791" y1="796.3104627381537" y2="811.734894889803" /><line stroke="black" style="stroke-width: 0.48999999999999994" x1="317.7837418805954" x2="305.7078007733791" y1="788.4735688042284" y2="811.734894889803" /><line stroke="black" style="stroke-width: 0.48999999999999994" x1="317.7837418805954" x2="271.4035786901817" y1="788.4735688042284" y2="796.3104627381537" /><polygon fill="red" opacity="0.20" points="317.7837418805954,788.4735688042284 271.4035786901817,796.3104627381537 305.7078007733791,811.734894889803" /><line stroke="black" style="stroke-width: 0.3429999999999999" x1="309.51248774157034" x2="302.41776312285737" y1="804.4061025882427" y2="791.0699707448788" /><line stroke="black" style="stroke-width: 0.3429999999999999" x1="300.68674783790976" x2="302.41776312285737" y1="809.4772459582738" y2="791.0699707448788" /><line stroke="black" style="stroke-width: 0.3429999999999999" x1="300.68674783790976" x2="309.51248774157034" y1="809.4772459582738" y2="804.4061025882427" /><polygon fill="blue" opacity="0.20" points="300.68674783790976,809.4772459582738 309.51248774157034,804.4061025882427 302.41776312285737,791.0699707448788" /><line stroke="black" style="stroke-width: 0.24009999999999992" x1="301.23212738538155" x2="306.58847621281194" y1="803.6777873899872" y2="806.0861976103475" /><line stroke="black" style="stroke-width: 0.24009999999999992" x1="308.4740444914456" x2="306.58847621281194" y1="802.4541147607075" y2="806.0861976103475" /><line stroke="black" style="stroke-width: 0.24009999999999992" x1="308.4740444914456" x2="301.23212738538155" y1="802.4541147607075" y2="803.6777873899872" /><polygon fill="red" opacity="0.20" points="308.4740444914456,802.4541147607075 301.23212738538155,803.6777873899872 306.58847621281194,806.0861976103475" /><line stroke="black" style="stroke-width: 0.16806999999999994" x1="307.18254975078105" x2="306.0747613333877" y1="804.9418612672538" y2="802.8595235892582" /><line stroke="black" style="stroke-width: 0.16806999999999994" x1="305.80447618688675" x2="306.0747613333877" y1="805.7336825415898" y2="802.8595235892582" /><line stroke="black" style="stroke-width: 0.16806999999999994" x1="305.80447618688675" x2="307.18254975078105" y1="805.7336825415898" y2="804.9418612672538" /><polygon fill="blue" opacity="0.20" points="305.80447618688675,805.7336825415898 307.18254975078105,804.9418612672538 306.0747613333877,802.8595235892582" /><line stroke="black" style="stroke-width: 0.11764899999999995" x1="305.8896331419875" x2="306.7259871246173" y1="804.828140272549" y2="805.204195593906" /><line stroke="black" style="stroke-width: 0.11764899999999995" x1="307.0204045701789" x2="306.7259871246173" y1="804.6370729037284" y2="805.204195593906" /><line stroke="black" style="stroke-width: 0.11764899999999995" x1="307.0204045701789" x2="305.8896331419875" y1="804.6370729037284" y2="804.828140272549" /><polygon fill="red" opacity="0.20" points="307.0204045701789,804.6370729037284 305.8896331419875,804.828140272549 306.7259871246173,805.204195593906" /><line stroke="black" style="stroke-width: 0.08235429999999996" x1="306.81874728370593" x2="306.64577437163547" y1="805.0255159954089" y2="804.7003744733805" /><line stroke="black" style="stroke-width: 0.08235429999999996" x1="306.6035713587201" x2="306.64577437163547" y1="805.1491529910005" y2="804.7003744733805" /><line stroke="black" style="stroke-width: 0.08235429999999996" x1="306.6035713587201" x2="306.81874728370593" y1="805.1491529910005" y2="805.0255159954089" /><polygon fill="blue" opacity="0.20" points="306.6035713587201,805.1491529910005 306.81874728370593,805.0255159954089 306.64577437163547,804.7003744733805" /><line stroke="black" style="stroke-width: 0.05764800999999997" x1="306.61686798312854" x2="306.7474584294996" y1="805.0077593089189" y2="805.0664775470068" /><line stroke="black" style="stroke-width: 0.05764800999999997" x1="306.79342952120084" x2="306.7474584294996" y1="804.9779255621021" y2="805.0664775470068" /><line stroke="black" style="stroke-width: 0.05764800999999997" x1="306.79342952120084" x2="306.61686798312854" y1="804.9779255621021" y2="805.0077593089189" /><polygon fill="red" opacity="0.20" points="306.79342952120084,804.9779255621021 306.61686798312854,805.0077593089189 306.7474584294996,805.0664775470068" /><line stroke="black" style="stroke-width: 0.04035360699999998" x1="306.7619422375923" x2="306.7349338054446" y1="805.0385780582574" y2="804.9878096308054" /><line stroke="black" style="stroke-width: 0.04035360699999998" x1="306.728344119249" x2="306.7349338054446" y1="805.0578830544637" y2="804.9878096308054" /><line stroke="black" style="stroke-width: 0.04035360699999998" x1="306.728344119249" x2="306.7619422375923" y1="805.0578830544637" y2="805.0385780582574" /><polygon fill="blue" opacity="0.20" points="306.728344119249,805.0578830544637 306.7619422375923,805.0385780582574 306.7349338054446,804.9878096308054" /></svg>