<?xml version="1.0" encoding="utf-8" ?>
<svg baseProfile="full" height="1000" version="1.1" width="1000" xmlns="http://www.w3.org/2000/svg" xmlns:ev="http://www.w3.org/2001/xml-events" xmlns:xlink="http://www.w3.org/1999/xlink"><defs /><line stroke="black" style="stroke-width: 1" x1="173.0" x2="959.0" y1="281.0" y2="141.0" /><line stroke="black" style="stroke-width: 1" x1="899.0" x2="959.0" y1="491.0" y2="141.0" /><line stroke="black" style="stroke-width: 1" x1="899.0" x2="173.0" y1="491.0" y2="281.0" /><polygon fill="blue" opacity="0.20" points="899.0,491.0 173.0,281.0 959.0,141.0" /><line stroke="black" style="stroke-width: 1" x1="921.1229183187946" x2="698.4722047144838" y1="361.9496431403648" y2="432.99609227278455" /><line stroke="black" style="stroke-width: 1" x1="703.2105159116154" x2="698.4722047144838" y1="186.56046790379057" y2="432.99609227278455" /><line stroke="black" style="stroke-width: 1" x1="703.2105159116154" x2="921.1229183187946" y1="186.56046790379057" y2="361.9496431403648" /><polygon fill="red" opacity="0.20" points="703.2105159116154,186.56046790379057 921.1229183187946,361.9496431403648 698.4722047144838,432.99609227278455" /><line stroke="black" style="stroke-width: 0.7" x1="700.3806895061969" x2="816.4360259275867" y1="333.73738559918917" y2="277.69125531228605" /><line stroke="black" style="stroke-width: 0.7" x1="791.9696994983124" x2="816.4360259275867" y1="403.1616268914157" y2="277.69125531228605" /><line stroke="black" style="stroke-width: 0.7" x1="791.9696994983124" x2="700.3806895061969" y1="403.1616268914157" y2="333.73738559918917" /><polygon fill="blue" opacity="0.20" points="791.9696994983124,403.1616268914157 700.3806895061969,333.73738559918917 816.4360259275867,277.69125531228605" /><line stroke="black" style="stroke-width: 0.48999999999999994" x1="802.9295943623878" x2="746.6408176677701" y1="346.9561280790452" y2="368.8024474442063" /><line stroke="black" style="stroke-width: 0.48999999999999994" x1="752.9354832758025" x2="746.6408176677701" y1="308.3573133884789" y2="368.8024474442063" /><line stroke="black" style="stroke-width: 0.48999999999999994" x1="752.9354832758025" x2="802.9295943623878" y1="308.3573133884789" y2="346.9561280790452" /><polygon fill="red" opacity="0.20" points="752.9354832758025,308.3573133884789 802.9295943623878,346.9561280790452 746.6408176677701,368.8024474442063" /><line stroke="black" style="stroke-width: 0.3429999999999999" x1="749.6417481341771" x2="778.0815111857171" y1="339.9857229938469" y2="327.7717374156867" /><line stroke="black" style="stroke-width: 0.3429999999999999" x1="773.6424947382226" x2="778.0815111857171" y1="358.322787104878" y2="327.7717374156867" /><line stroke="black" style="stroke-width: 0.3429999999999999" x1="773.6424947382226" x2="749.6417481341771" y1="358.322787104878" y2="339.9857229938469" /><polygon fill="blue" opacity="0.20" points="773.6424947382226,358.322787104878 749.6417481341771,339.9857229938469 778.0815111857171,327.7717374156867" /><line stroke="black" style="stroke-width: 0.24009999999999992" x1="775.8087692585168" x2="761.6745469747931" y1="343.4136374559176" y2="349.1790288278498" /><line stroke="black" style="stroke-width: 0.24009999999999992" x1="763.5589177743004" x2="761.6745469747931" y1="334.0087354582885" y2="349.1790288278498" /><line stroke="black" style="stroke-width: 0.24009999999999992" x1="763.5589177743004" x2="775.8087692585168" y1="334.0087354582885" y2="343.4136374559176" /><polygon fill="red" opacity="0.20" points="763.5589177743004,334.0087354582885 775.8087692585168,343.4136374559176 761.6745469747931,349.1790288278498" /><line stroke="black" style="stroke-width: 0.16806999999999994" x1="762.6056548776056" x2="769.6924806356133" y1="341.68306250949706" y2="338.7178176607346" /><line stroke="black" style="stroke-width: 0.16806999999999994" x1="768.6685293174869" x2="769.6924806356133" y1="346.3261625968961" y2="338.7178176607346" /><line stroke="black" style="stroke-width: 0.16806999999999994" x1="768.6685293174869" x2="762.6056548776056" y1="346.3261625968961" y2="341.68306250949706" /><polygon fill="blue" opacity="0.20" points="768.6685293174869,346.3261625968961 762.6056548776056,341.68306250949706 769.6924806356133,338.7178176607346" /><line stroke="black" style="stroke-width: 0.11764899999999995" x1="769.1774690576251" x2="765.639181453921" y1="342.54454815278103" y2="344.0062126342898" /><line stroke="black" style="stroke-width: 0.11764899999999995" x1="766.130497909337" x2="765.639181453921" y1="340.2082100156626" y2="344.0062126342898" /><line stroke="black" style="stroke-width: 0.11764899999999995" x1="766.130497909337" x2="769.1774690576251" y1="340.2082100156626" y2="342.54454815278103" /><polygon fill="red" opacity="0.20" points="766.130497909337,340.2082100156626 769.1774690576251,342.54454815278103 765.639181453921,344.0062126342898" /><line stroke="black" style="stroke-width: 0.08235429999999996" x1="765.8841146869073" x2="767.6545143147839" y1="342.11281572072494" y2="341.3767861118446" /><line stroke="black" style="stroke-width: 0.08235429999999996" x1="767.403720507396" x2="767.6545143147839" y1="343.277282612323" y2="341.3767861118446" /><line stroke="black" style="stroke-width: 0.08235429999999996" x1="767.403720507396" x2="765.8841146869073" y1="343.277282612323" y2="342.11281572072494" /><polygon fill="blue" opacity="0.20" points="767.403720507396,343.277282612323 765.8841146869073,342.11281572072494 767.6545143147839,341.3767861118446" /><line stroke="black" style="stroke-width: 0.05764800999999997" x1="767.528931958898" x2="766.6440492287359" y1="342.3284397047369" y2="342.69515003519507" /><line stroke="black" style="stroke-width: 0.05764800999999997" x1="766.7681587143791" x2="766.6440492287359" y1="341.745281425322" y2="342.69515003519507" /><line stroke="black" style="stroke-width: 0.05764800999999997" x1="766.7681587143791" x2="767.528931958898" y1="341.745281425322" y2="342.3284397047369" /><polygon fill="red" opacity="0.20" points="766.7681587143791,341.745281425322 767.528931958898,342.3284397047369 766.6440492287359,342.69515003519507" /><line stroke="black" style="stroke-width: 0.04035360699999998" x1="766.7060581366479" x2="767.1485783781194" y1="342.220566526563" y2="342.0368858924387" /><line stroke="black" style="stroke-width: 0.04035360699999998" x1="767.0862022291275" x2="767.1485783781194" y1="342.51191437314253" y2="342.0368858924387" /><line stroke="black" style="stroke-width: 0.04035360699999998" x1="767.0862022291275" x2="766.7060581366479" y1="342.51191437314253" y2="342.220566526563" /><polygon fill="blue" opacity="0.20" points="767.0862022291275,342.51191437314253 766.7060581366479,342.220566526563 767.1485783781194,342.0368858924387" /></svg>