<?xml version="1.0" encoding="utf-8" ?>
<svg baseProfile="full" height="1000" version="1.1" width="1000" xmlns="http://www.w3.org/2000/svg" xmlns:ev="http://www.w3.org/2001/xml-events" xmlns:xlink="http://www.w3.org/1999/xlink"><defs /><line stroke="black" style="stroke-width: 1" x1="150.0" x2="840.0" y1="475.0" y2="298.0" /><line stroke="black" style="stroke-width: 1" x1="16.0" x2="840.0" y1="84.0" y2="298.0" /><line stroke="black" style="stroke-width: 1" x1="16.0" x2="150.0" y1="84.0" y2="475.0" /><polygon fill="blue" opacity="0.20" points="16.0,84.0 150.0,475.0 840.0,298.0" /><line stroke="black" style="stroke-width: 1" x1="332.3313593792255" x2="125.61951743475173" y1="166.1540180912066" y2="403.8599352013908" /><line stroke="black" style="stroke-width: 1" x1="306.6903300757347" x2="125.61951743475173" y1="434.80552402405067" y2="403.8599352013908" /><line stroke="black" style="stroke-width: 1" x1="306.6903300757347" x2="332.3313593792255" y1="434.80552402405067" y2="166.1540180912066" /><polygon fill="red" opacity="0.20" points="306.6903300757347,434.80552402405067 332.3313593792255,166.1540180912066 125.61951743475173,403.8599352013908" /><line stroke="black" style="stroke-width: 0.7" x1="251.5740902192182" x2="313.74675012178307" y1="425.3859799728946" y2="360.87253758158363" /><line stroke="black" style="stroke-width: 0.7" x1="208.62022060108845" x2="313.74675012178307" y1="308.4142264245417" y2="360.87253758158363" /><line stroke="black" style="stroke-width: 0.7" x1="208.62022060108845" x2="251.5740902192182" y1="308.4142264245417" y2="425.3859799728946" /><polygon fill="blue" opacity="0.20" points="208.62022060108845,308.4142264245417 251.5740902192182,425.3859799728946 313.74675012178307,360.87253758158363" /><line stroke="black" style="stroke-width: 0.48999999999999994" x1="275.46340332194194" x2="234.0917513410993" y1="341.769084554884" y2="377.77816598824063" /><line stroke="black" style="stroke-width: 0.48999999999999994" x1="285.99846034870643" x2="234.0917513410993" y1="389.6655423611481" y2="377.77816598824063" /><line stroke="black" style="stroke-width: 0.48999999999999994" x1="285.99846034870643" x2="275.46340332194194" y1="389.6655423611481" y2="341.769084554884" /><polygon fill="red" opacity="0.20" points="285.99846034870643,389.6655423611481 275.46340332194194,341.769084554884 234.0917513410993,377.77816598824063" /><line stroke="black" style="stroke-width: 0.3429999999999999" x1="262.8055831935225" x2="280.9200012903418" y1="384.35404284238956" y2="366.5768965767149" /><line stroke="black" style="stroke-width: 0.3429999999999999" x1="256.2579059610665" x2="280.9200012903418" y1="358.48517601664287" y2="366.5768965767149" /><line stroke="black" style="stroke-width: 0.3429999999999999" x1="256.2579059610665" x2="262.8055831935225" y1="358.48517601664287" y2="384.35404284238956" /><polygon fill="blue" opacity="0.20" points="256.2579059610665,358.48517601664287 262.8055831935225,384.35404284238956 280.9200012903418,366.5768965767149" /><line stroke="black" style="stroke-width: 0.24009999999999992" x1="269.21046433653356" x2="259.5996420069573" y1="362.73495615547563" y2="371.68786174304955" /><line stroke="black" style="stroke-width: 0.24009999999999992" x1="272.13258163209576" x2="259.5996420069573" y1="375.2007035203074" y2="371.68786174304955" /><line stroke="black" style="stroke-width: 0.24009999999999992" x1="272.13258163209576" x2="269.21046433653356" y1="375.2007035203074" y2="362.73495615547563" /><polygon fill="red" opacity="0.20" points="272.13258163209576,375.2007035203074 269.21046433653356,362.73495615547563 259.5996420069573,371.68786174304955" /><line stroke="black" style="stroke-width: 0.16806999999999994" x1="266.02495713011865" x2="270.68537208122234" y1="373.48880518264065" y2="369.0269100615374" /><line stroke="black" style="stroke-width: 0.16806999999999994" x1="264.4813866925549" x2="270.68537208122234" y1="367.1403009023657" y2="369.0269100615374" /><line stroke="black" style="stroke-width: 0.16806999999999994" x1="264.4813866925549" x2="266.02495713011865" y1="367.1403009023657" y2="373.48880518264065" /><polygon fill="blue" opacity="0.20" points="264.4813866925549,367.1403009023657 266.02495713011865,373.48880518264065 270.68537208122234,369.0269100615374" /><line stroke="black" style="stroke-width: 0.11764899999999995" x1="267.622409636148" x2="265.2569756203143" y1="368.09547443732976" y2="370.3301972023653" /><line stroke="black" style="stroke-width: 0.11764899999999995" x1="268.37300411175056" x2="265.2569756203143" y1="371.2407780259624" y2="370.3301972023653" /><line stroke="black" style="stroke-width: 0.11764899999999995" x1="268.37300411175056" x2="267.622409636148" y1="371.2407780259624" y2="368.09547443732976" /><polygon fill="red" opacity="0.20" points="268.37300411175056,371.2407780259624 267.622409636148,368.09547443732976 265.2569756203143,370.3301972023653" /><line stroke="black" style="stroke-width: 0.08235429999999996" x1="266.8248163268405" x2="267.99861265805254" y1="370.7883591497761" y2="369.671921844433" /><line stroke="black" style="stroke-width: 0.08235429999999996" x1="266.44429785333267" x2="267.99861265805254" y1="369.208485074362" y2="369.671921844433" /><line stroke="black" style="stroke-width: 0.08235429999999996" x1="266.44429785333267" x2="266.8248163268405" y1="369.208485074362" y2="370.7883591497761" /><polygon fill="blue" opacity="0.20" points="266.44429785333267,369.208485074362 266.8248163268405,370.7883591497761 267.99861265805254,369.671921844433" /><line stroke="black" style="stroke-width: 0.05764800999999997" x1="267.22390228377157" x2="266.6347890091713" y1="369.44093306886055" y2="369.9993850165658" /><line stroke="black" style="stroke-width: 0.05764800999999997" x1="267.41284706297006" x2="266.6347890091713" y1="370.22906327106455" y2="369.9993850165658" /><line stroke="black" style="stroke-width: 0.05764800999999997" x1="267.41284706297006" x2="267.22390228377157" y1="370.22906327106455" y2="369.44093306886055" /><polygon fill="red" opacity="0.20" points="267.41284706297006,370.22906327106455 267.22390228377157,369.44093306886055 266.6347890091713,369.9993850165658" /><line stroke="black" style="stroke-width: 0.04035360699999998" x1="267.02443092959123" x2="267.31843195895556" y1="370.11440506644436" y2="369.835237120743" /><line stroke="black" style="stroke-width: 0.04035360699999998" x1="266.929631093673" x2="267.31843195895556" y1="369.71988845206613" y2="369.835237120743" /><line stroke="black" style="stroke-width: 0.04035360699999998" x1="266.929631093673" x2="267.02443092959123" y1="369.71988845206613" y2="370.11440506644436" /><polygon fill="blue" opacity="0.20" points="266.929631093673,369.71988845206613 267.02443092959123,370.11440506644436 267.31843195895556,369.835237120743" /></svg>