<?xml version="1.0" encoding="utf-8" ?>
<svg baseProfile="full" height="1000" version="1.1" width="1000" xmlns="http://www.w3.org/2000/svg" xmlns:ev="http://www.w3.org/2001/xml-events" xmlns:xlink="http://www.w3.org/1999/xlink"><defs /><line stroke="black" style="stroke-width: 1" x1="817.0" x2="594.0" y1="386.0" y2="122.0" /><line stroke="black" style="stroke-width: 1" x1="324.0" x2="594.0" y1="972.0" y2="122.0" /><line stroke="black" style="stroke-width: 1" x1="324.0" x2="817.0" y1="972.0" y2="386.0" /><polygon fill="blue" opacity="0.20" points="324.0,972.0 817.0,386.0 594.0,122.0" /><line stroke="black" style="stroke-width: 1" x1="498.6327005280362" x2="712.5660398673517" y1="422.2303872265527" y2="510.1344840521987" /><line stroke="black" style="stroke-width: 1" x1="803.0444107180111" x2="712.5660398673517" y1="369.4785848859117" y2="510.1344840521987" /><line stroke="black" style="stroke-width: 1" x1="803.0444107180111" x2="498.6327005280362" y1="369.4785848859117" y2="422.2303872265527" /><polygon fill="red" opacity="0.20" points="803.0444107180111,369.4785848859117 498.6327005280362,422.2303872265527 712.5660398673517,510.1344840521987" /><line stroke="black" style="stroke-width: 0.7" x1="723.8766354684209" x2="671.1893228514792" y1="492.55125416624475" y2="392.32788174241233" /><line stroke="black" style="stroke-width: 0.7" x1="673.0639796090619" x2="671.1893228514792" y1="493.9032928761034" y2="392.32788174241233" /><line stroke="black" style="stroke-width: 0.7" x1="673.0639796090619" x2="723.8766354684209" y1="493.9032928761034" y2="492.55125416624475" /><polygon fill="blue" opacity="0.20" points="673.0639796090619,493.9032928761034 723.8766354684209,492.55125416624475 671.1893228514792,392.32788174241233" /><line stroke="black" style="stroke-width: 0.48999999999999994" x1="672.5914940624697" x2="686.1808970816281" y1="468.3023856923651" y2="493.5542739185848" /><line stroke="black" style="stroke-width: 0.48999999999999994" x1="705.4822244394896" x2="686.1808970816281" y1="457.5608586516165" y2="493.5542739185848" /><line stroke="black" style="stroke-width: 0.48999999999999994" x1="705.4822244394896" x2="672.5914940624697" y1="457.5608586516165" y2="468.3023856923651" /><polygon fill="red" opacity="0.20" points="705.4822244394896,457.5608586516165 672.5914940624697,468.3023856923651 686.1808970816281,493.5542739185848" /><line stroke="black" style="stroke-width: 0.3429999999999999" x1="694.7472042121395" x2="683.228018974954" y1="477.579691231279" y2="464.82868600076546" /><line stroke="black" style="stroke-width: 0.3429999999999999" x1="677.4407873115842" x2="683.228018974954" y1="477.31336365293504" y2="464.82868600076546" /><line stroke="black" style="stroke-width: 0.3429999999999999" x1="677.4407873115842" x2="694.7472042121395" y1="477.31336365293504" y2="477.579691231279" /><polygon fill="blue" opacity="0.20" points="677.4407873115842,477.31336365293504 694.7472042121395,477.579691231279 683.228018974954,464.82868600076546" /><line stroke="black" style="stroke-width: 0.24009999999999992" x1="680.3672821968086" x2="684.5642819715497" y1="471.0000955105738" y2="477.42298675360587" /><line stroke="black" style="stroke-width: 0.24009999999999992" x1="687.9126242572912" x2="684.5642819715497" y1="470.0142460232968" y2="477.42298675360587" /><line stroke="black" style="stroke-width: 0.24009999999999992" x1="687.9126242572912" x2="680.3672821968086" y1="470.0142460232968" y2="471.0000955105738" /><polygon fill="red" opacity="0.20" points="687.9126242572912,470.0142460232968 680.3672821968086,471.0000955105738 684.5642819715497,477.42298675360587" /><line stroke="black" style="stroke-width: 0.16806999999999994" x1="686.2506641897568" x2="683.9043409332294" y1="473.691597438927" y2="470.5379550915148" /><line stroke="black" style="stroke-width: 0.16806999999999994" x1="682.3196859171655" x2="683.9043409332294" y1="473.98796242298965" y2="470.5379550915148" /><line stroke="black" style="stroke-width: 0.16806999999999994" x1="682.3196859171655" x2="686.2506641897568" y1="473.98796242298965" y2="473.691597438927" /><polygon fill="blue" opacity="0.20" points="682.3196859171655,473.98796242298965 686.2506641897568,473.691597438927 683.9043409332294,470.5379550915148" /><line stroke="black" style="stroke-width: 0.11764899999999995" x1="683.1144796636421" x2="684.2195966104028" y1="472.2575894240981" y2="473.8447240321166" /><line stroke="black" style="stroke-width: 0.11764899999999995" x1="685.0347262126326" x2="684.2195966104028" y1="472.0572814998068" y2="473.8447240321166" /><line stroke="black" style="stroke-width: 0.11764899999999995" x1="685.0347262126326" x2="683.1144796636421" y1="472.0572814998068" y2="472.2575894240981" /><polygon fill="red" opacity="0.20" points="685.0347262126326,472.0572814998068 683.1144796636421,472.2575894240981 684.2195966104028,473.8447240321166" /><line stroke="black" style="stroke-width: 0.08235429999999996" x1="684.6278377838288" x2="684.0592630787137" y1="472.9495195948962" y2="472.1590356186552" /><line stroke="black" style="stroke-width: 0.08235429999999996" x1="683.6572939651779" x2="684.0592630787137" y1="473.03716245138094" y2="472.1590356186552" /><line stroke="black" style="stroke-width: 0.08235429999999996" x1="683.6572939651779" x2="684.6278377838288" y1="473.03716245138094" y2="472.9495195948962" /><polygon fill="blue" opacity="0.20" points="683.6572939651779,473.03716245138094 684.6278377838288,472.9495195948962 684.0592630787137,472.1590356186552" /><line stroke="black" style="stroke-width: 0.05764800999999997" x1="683.8584395428679" x2="684.1386167510026" y1="472.59774727474434" y2="472.9936976401773" /><line stroke="black" style="stroke-width: 0.05764800999999997" x1="684.3410092185695" x2="684.1386167510026" y1="472.5507445830597" y2="472.9936976401773" /><line stroke="black" style="stroke-width: 0.05764800999999997" x1="684.3410092185695" x2="683.8584395428679" y1="472.5507445830597" y2="472.59774727474434" /><polygon fill="red" opacity="0.20" points="684.3410092185695,472.5507445830597 683.8584395428679,472.59774727474434 684.1386167510026,472.9936976401773" /><line stroke="black" style="stroke-width: 0.04035360699999998" x1="684.2398542054593" x2="684.0987523133317" y1="472.7721308966867" y2="472.5743406090809" /><line stroke="black" style="stroke-width: 0.04035360699999998" x1="683.9979067113652" x2="684.0987523133317" y1="472.7948442359802" y2="472.5743406090809" /><line stroke="black" style="stroke-width: 0.04035360699999998" x1="683.9979067113652" x2="684.2398542054593" y1="472.7948442359802" y2="472.7721308966867" /><polygon fill="blue" opacity="0.20" points="683.9979067113652,472.7948442359802 684.2398542054593,472.7721308966867 684.0987523133317,472.5743406090809" /></svg>