<?xml version="1.0" encoding="utf-8" ?>
<svg baseProfile="full" height="1000" version="1.1" width="1000" xmlns="http://www.w3.org/2000/svg" xmlns:ev="http://www.w3.org/2001/xml-events" xmlns:xlink="http://www.w3.org/1999/xlink"><defs /><line stroke="black" style="stroke-width: 1" x1="123.0" x2="524.0" y1="717.0" y2="901.0" /><line stroke="black" style="stroke-width: 1" x1="827.0" x2="524.0" y1="571.0" y2="901.0" /><line stroke="black" style="stroke-width: 1" x1="827.0" x2="123.0" y1="571.0" y2="717.0" /><polygon fill="blue" opacity="0.20" points="827.0,571.0 123.0,717.0 524.0,901.0" /><circle cx="571.1832392254443" cy="1128.5137014706352" fill="red" r="2" /><text style="font-size:10;font-family:Courier New;stroke:black;stroke-width:0.3;fill:none;" x="571.1832392254443" y="1128.5137014706352" /><line stroke="black" style="stroke-width: 1" x1="432.2390475763419" x2="470.87894732769496" y1="1000.9376709564593" y2="644.8546501280632" /><line stroke="black" style="stroke-width: 1" x1="649.2150346506933" x2="470.87894732769496" y1="958.4552777449566" y2="644.8546501280632" /><line stroke="black" style="stroke-width: 1" x1="649.2150346506933" x2="432.2390475763419" y1="958.4552777449566" y2="1000.9376709564593" /><polygon fill="red" opacity="0.20" points="649.2150346506933,958.4552777449566 432.2390475763419,1000.9376709564593 470.87894732769496,644.8546501280632" /><circle cx="529.7414099420158" cy="945.4907480941556" fill="blue" r="2" /><text style="font-size:10;font-family:Courier New;stroke:black;stroke-width:0.3;fill:none;" x="529.7414099420158" y="945.4907480941556" /><line stroke="black" style="stroke-width: 0.7" x1="614.4489985740113" x2="536.5969794723654" y1="897.3198626020973" y2="980.5051117718004" /><line stroke="black" style="stroke-width: 0.7" x1="439.32052727355966" x2="536.5969794723654" y1="935.6788400913305" y2="980.5051117718004" /><line stroke="black" style="stroke-width: 0.7" x1="439.32052727355966" x2="614.4489985740113" y1="935.6788400913305" y2="897.3198626020973" /><polygon fill="blue" opacity="0.20" points="439.32052727355966,935.6788400913305 614.4489985740113,897.3198626020973 536.5969794723654,980.5051117718004" /><circle cx="549.3292855714712" cy="1038.634641003624" fill="red" r="2" /><text style="font-size:10;font-family:Courier New;stroke:black;stroke-width:0.3;fill:none;" x="549.3292855714712" y="1038.634641003624" /><line stroke="black" style="stroke-width: 0.48999999999999994" x1="569.1941659100769" x2="522.7747625000633" y1="995.5263250484693" y2="917.3995785488584" /><line stroke="black" style="stroke-width: 0.48999999999999994" x1="513.5408482204554" x2="522.7747625000633" y1="1005.1406966315222" y2="917.3995785488584" /><line stroke="black" style="stroke-width: 0.48999999999999994" x1="513.5408482204554" x2="569.1941659100769" y1="1005.1406966315222" y2="995.5263250484693" /><polygon fill="red" opacity="0.20" points="513.5408482204554,1005.1406966315222 569.1941659100769,995.5263250484693 522.7747625000633,917.3995785488584" /><circle cx="535.661881184855" cy="991.9973724943559" fill="blue" r="2" /><text style="font-size:10;font-family:Courier New;stroke:black;stroke-width:0.3;fill:none;" x="535.661881184855" y="991.9973724943559" /><line stroke="black" style="stroke-width: 0.3429999999999999" x1="515.1512243265138" x2="537.2256000017202" y1="989.8388218468453" y2="1001.0490447061703" /><line stroke="black" style="stroke-width: 0.3429999999999999" x1="558.895487178338" x2="537.2256000017202" y1="978.1930074388315" y2="1001.0490447061703" /><line stroke="black" style="stroke-width: 0.3429999999999999" x1="558.895487178338" x2="515.1512243265138" y1="978.1930074388315" y2="989.8388218468453" /><polygon fill="blue" opacity="0.20" points="558.895487178338,978.1930074388315 515.1512243265138,989.8388218468453 537.2256000017202,1001.0490447061703" /><circle cx="540.6864825987753" cy="1014.0488876300544" fill="red" r="2" /><text style="font-size:10;font-family:Courier New;stroke:black;stroke-width:0.3;fill:none;" x="540.6864825987753" y="1014.0488876300544" /><line stroke="black" style="stroke-width: 0.24009999999999992" x1="532.373207895746" x2="532.9776948722019" y1="1006.1670434251099" y2="985.0929705284989" /><line stroke="black" style="stroke-width: 0.24009999999999992" x1="545.2252064103698" x2="532.9776948722019" y1="1005.1115546474338" y2="985.0929705284989" /><line stroke="black" style="stroke-width: 0.24009999999999992" x1="545.2252064103698" x2="532.373207895746" y1="1005.1115546474338" y2="1006.1670434251099" /><polygon fill="red" opacity="0.20" points="545.2252064103698,1005.1115546474338 532.373207895746,1006.1670434251099 532.9776948722019,985.0929705284989" /><circle cx="534.596712125612" cy="1004.8066877901348" fill="blue" r="2" /><text style="font-size:10;font-family:Courier New;stroke:black;stroke-width:0.3;fill:none;" x="534.596712125612" y="1004.8066877901348" /><line stroke="black" style="stroke-width: 0.16806999999999994" x1="542.1946998390829" x2="534.6927882880454" y1="1000.1581850971071" y2="1005.9765445645492" /><line stroke="black" style="stroke-width: 0.16806999999999994" x1="532.4140240690972" x2="534.6927882880454" y1="1004.7440797451537" y2="1005.9765445645492" /><line stroke="black" style="stroke-width: 0.16806999999999994" x1="532.4140240690972" x2="542.1946998390829" y1="1004.7440797451537" y2="1000.1581850971071" /><polygon fill="blue" opacity="0.20" points="532.4140240690972,1004.7440797451537 542.1946998390829,1000.1581850971071 534.6927882880454,1005.9765445645492" /><circle cx="536.7151015441295" cy="1010.2896812113191" fill="red" r="2" /><text style="font-size:10;font-family:Courier New;stroke:black;stroke-width:0.3;fill:none;" x="536.7151015441295" y="1010.2896812113191" /><line stroke="black" style="stroke-width: 0.11764899999999995" x1="538.0622341036119" x2="533.8083808232223" y1="1007.7989022240313" y2="1004.0903035310545" /><line stroke="black" style="stroke-width: 0.11764899999999995" x1="533.8667751526012" x2="533.8083808232223" y1="1006.617186794755" y2="1004.0903035310545" /><line stroke="black" style="stroke-width: 0.11764899999999995" x1="533.8667751526012" x2="538.0622341036119" y1="1006.617186794755" y2="1007.7989022240313" /><polygon fill="red" opacity="0.20" points="533.8667751526012,1006.617186794755 538.0622341036119,1007.7989022240313 533.8083808232223,1004.0903035310545" /><circle cx="532.7290832095215" cy="1007.9221472406826" fill="blue" r="2" /><text style="font-size:10;font-family:Courier New;stroke:black;stroke-width:0.3;fill:none;" x="532.7290832095215" y="1007.9221472406826" /><line stroke="black" style="stroke-width: 0.08235429999999996" x1="533.8963084442069" x2="533.1532529074317" y1="1007.8951735629591" y2="1006.4162122992128" /><line stroke="black" style="stroke-width: 0.08235429999999996" x1="535.0932057696182" x2="533.1532529074317" y1="1005.2104409224535" y2="1006.4162122992128" /><line stroke="black" style="stroke-width: 0.08235429999999996" x1="535.0932057696182" x2="533.8963084442069" y1="1005.2104409224535" y2="1007.8951735629591" /><polygon fill="blue" opacity="0.20" points="535.0932057696182,1005.2104409224535 533.8963084442069,1007.8951735629591 533.1532529074317,1006.4162122992128" /><circle cx="532.9095304767693" cy="1006.3075568893534" fill="red" r="2" /><text style="font-size:10;font-family:Courier New;stroke:black;stroke-width:0.3;fill:none;" x="532.9095304767693" y="1006.3075568893534" /><line stroke="black" style="stroke-width: 0.05764800999999997" x1="533.0261625022827" x2="534.3231365300126" y1="1006.4952049261863" y2="1006.9377653796781" /><line stroke="black" style="stroke-width: 0.05764800999999997" x1="533.0605434208742" x2="534.3231365300126" y1="1006.2316853930336" y2="1006.9377653796781" /><line stroke="black" style="stroke-width: 0.05764800999999997" x1="533.0605434208742" x2="533.0261625022827" y1="1006.2316853930336" y2="1006.4952049261863" /><polygon fill="red" opacity="0.20" points="533.0605434208742,1006.2316853930336 533.0261625022827,1006.4952049261863 534.3231365300126,1006.9377653796781" /><circle cx="532.883693654267" cy="1006.7499638617404" fill="blue" r="2" /><text style="font-size:10;font-family:Courier New;stroke:black;stroke-width:0.3;fill:none;" x="532.883693654267" y="1006.7499638617404" /><line stroke="black" style="stroke-width: 0.04035360699999998" x1="533.14661322228" x2="532.9910963595174" y1="1006.2798182109477" y2="1006.7639764991413" /><line stroke="black" style="stroke-width: 0.04035360699999998" x1="532.9764160810314" x2="532.9910963595174" y1="1006.4782301847689" y2="1006.7639764991413" /><line stroke="black" style="stroke-width: 0.04035360699999998" x1="532.9764160810314" x2="533.14661322228" y1="1006.4782301847689" y2="1006.2798182109477" /><polygon fill="blue" opacity="0.20" points="532.9764160810314,1006.4782301847689 533.14661322228,1006.2798182109477 532.9910963595174,1006.7639764991413" /></svg>