<?xml version="1.0" encoding="utf-8" ?>
<svg baseProfile="full" height="1000" version="1.1" width="1000" xmlns="http://www.w3.org/2000/svg" xmlns:ev="http://www.w3.org/2001/xml-events" xmlns:xlink="http://www.w3.org/1999/xlink"><defs /><line stroke="black" style="stroke-width: 1" x1="298.0" x2="541.0" y1="257.0" y2="235.0" /><line stroke="black" style="stroke-width: 1" x1="773.0" x2="541.0" y1="610.0" y2="235.0" /><line stroke="black" style="stroke-width: 1" x1="773.0" x2="298.0" y1="610.0" y2="257.0" /><polygon fill="blue" opacity="0.20" points="773.0,610.0 298.0,257.0 541.0,235.0" /><line stroke="black" style="stroke-width: 1" x1="483.58015212214474" x2="444.0110240581854" y1="142.18774588708817" y2="365.5092452474579" /><line stroke="black" style="stroke-width: 1" x1="737.4392521794634" x2="444.0110240581854" y1="217.2153763458922" y2="365.5092452474579" /><line stroke="black" style="stroke-width: 1" x1="737.4392521794634" x2="483.58015212214474" y1="217.2153763458922" y2="142.18774588708817" /><polygon fill="red" opacity="0.20" points="737.4392521794634,217.2153763458922 483.58015212214474,142.18774588708817 444.0110240581854,365.5092452474579" /><line stroke="black" style="stroke-width: 0.7" x1="565.4310035480795" x2="507.8898911831618" y1="304.14555629432624" y2="149.3724484185626" /><line stroke="black" style="stroke-width: 0.7" x1="478.41821670223516" x2="507.8898911831618" y1="171.32084064991022" y2="149.3724484185626" /><line stroke="black" style="stroke-width: 0.7" x1="478.41821670223516" x2="565.4310035480795" y1="171.32084064991022" y2="304.14555629432624" /><polygon fill="blue" opacity="0.20" points="478.41821670223516,171.32084064991022 565.4310035480795,304.14555629432624 507.8898911831618,149.3724484185626" /><line stroke="black" style="stroke-width: 0.48999999999999994" x1="470.7600461905081" x2="477.2073345091564" y1="177.0240975271146" y2="169.47243320538226" /><line stroke="black" style="stroke-width: 0.48999999999999994" x1="511.48005268124734" x2="477.2073345091564" y1="159.0292039103806" y2="169.47243320538226" /><line stroke="black" style="stroke-width: 0.48999999999999994" x1="511.48005268124734" x2="470.7600461905081" y1="159.0292039103806" y2="177.0240975271146" /><polygon fill="red" opacity="0.20" points="511.48005268124734,159.0292039103806 470.7600461905081,177.0240975271146 477.2073345091564,169.47243320538226" /><line stroke="black" style="stroke-width: 0.3429999999999999" x1="469.20223805447864" x2="478.9459192425871" y1="171.911663656415" y2="173.4066149327421" /><line stroke="black" style="stroke-width: 0.3429999999999999" x1="496.81366736438633" x2="478.9459192425871" y1="146.50767081462354" y2="173.4066149327421" /><line stroke="black" style="stroke-width: 0.3429999999999999" x1="496.81366736438633" x2="469.20223805447864" y1="146.50767081462354" y2="171.911663656415" /><polygon fill="blue" opacity="0.20" points="496.81366736438633,146.50767081462354 469.20223805447864,171.911663656415 478.9459192425871,173.4066149327421" /><line stroke="black" style="stroke-width: 0.24009999999999992" x1="476.6519012740357" x2="473.7341919423518" y1="176.86013692786315" y2="167.7420235108608" /><line stroke="black" style="stroke-width: 0.24009999999999992" x1="492.37060418712827" x2="473.7341919423518" y1="175.46633440679807" y2="167.7420235108608" /><line stroke="black" style="stroke-width: 0.24009999999999992" x1="492.37060418712827" x2="476.6519012740357" y1="175.46633440679807" y2="176.86013692786315" /><polygon fill="red" opacity="0.20" points="492.37060418712827,175.46633440679807 476.6519012740357,176.86013692786315 473.7341919423518,167.7420235108608" /><line stroke="black" style="stroke-width: 0.16806999999999994" x1="479.449327183445" x2="474.5591641037063" y1="170.11079926204525" y2="177.04570327903662" /><line stroke="black" style="stroke-width: 0.16806999999999994" x1="477.7073277649683" x2="474.5591641037063" y1="180.158443014458" y2="177.04570327903662" /><line stroke="black" style="stroke-width: 0.16806999999999994" x1="477.7073277649683" x2="479.449327183445" y1="180.158443014458" y2="170.11079926204525" /><polygon fill="blue" opacity="0.20" points="477.7073277649683,180.158443014458 479.449327183445,170.11079926204525 474.5591641037063,177.04570327903662" /><line stroke="black" style="stroke-width: 0.11764899999999995" x1="473.5646830810368" x2="478.13937969316675" y1="176.0624124058627" y2="177.66641930247332" /><line stroke="black" style="stroke-width: 0.11764899999999995" x1="474.1386813217326" x2="478.13937969316675" y1="177.6420039925809" y2="177.66641930247332" /><line stroke="black" style="stroke-width: 0.11764899999999995" x1="474.1386813217326" x2="473.5646830810368" y1="177.6420039925809" y2="176.0624124058627" /><polygon fill="red" opacity="0.20" points="474.1386813217326,177.6420039925809 473.5646830810368,176.0624124058627 478.13937969316675,177.66641930247332" /><line stroke="black" style="stroke-width: 0.08235429999999996" x1="473.5550649456481" x2="474.6131806342667" y1="177.6384423207529" y2="178.9477834685998" /><line stroke="black" style="stroke-width: 0.08235429999999996" x1="474.5690514400694" x2="474.6131806342667" y1="176.4145699173245" y2="178.9477834685998" /><line stroke="black" style="stroke-width: 0.08235429999999996" x1="474.5690514400694" x2="473.5550649456481" y1="176.4145699173245" y2="177.6384423207529" /><polygon fill="blue" opacity="0.20" points="474.5690514400694,176.4145699173245 473.5550649456481,177.6384423207529 474.6131806342667,178.9477834685998" /><line stroke="black" style="stroke-width: 0.05764800999999997" x1="474.59005751019106" x2="473.3424951955443" y1="177.62041249936422" y2="177.89501206047393" /><line stroke="black" style="stroke-width: 0.05764800999999997" x1="473.3573479098179" x2="473.3424951955443" y1="177.3937818800955" y2="177.89501206047393" /><line stroke="black" style="stroke-width: 0.05764800999999997" x1="473.3573479098179" x2="474.59005751019106" y1="177.3937818800955" y2="177.62041249936422" /><polygon fill="red" opacity="0.20" points="473.3573479098179,177.3937818800955 474.59005751019106,177.62041249936422 473.3424951955443,177.89501206047393" /><line stroke="black" style="stroke-width: 0.04035360699999998" x1="473.3517196406197" x2="473.43211790817986" y1="177.58371742539572" y2="177.40752815985772" /><line stroke="black" style="stroke-width: 0.04035360699999998" x1="473.46188875992215" x2="473.43211790817986" y1="177.8687324750862" y2="177.40752815985772" /><line stroke="black" style="stroke-width: 0.04035360699999998" x1="473.46188875992215" x2="473.3517196406197" y1="177.8687324750862" y2="177.58371742539572" /><polygon fill="blue" opacity="0.20" points="473.46188875992215,177.8687324750862 473.3517196406197,177.58371742539572 473.43211790817986,177.40752815985772" /></svg>