<?xml version="1.0" encoding="utf-8" ?>
<svg baseProfile="full" height="1000" version="1.1" width="1000" xmlns="http://www.w3.org/2000/svg" xmlns:ev="http://www.w3.org/2001/xml-events" xmlns:xlink="http://www.w3.org/1999/xlink"><defs /><line stroke="black" style="stroke-width: 1" x1="744.0" x2="386.0" y1="214.0" y2="237.0" /><line stroke="black" style="stroke-width: 1" x1="287.0" x2="386.0" y1="608.0" y2="237.0" /><line stroke="black" style="stroke-width: 1" x1="287.0" x2="744.0" y1="608.0" y2="214.0" /><polygon fill="blue" opacity="0.20" points="287.0,608.0 744.0,214.0 386.0,237.0" /><line stroke="black" style="stroke-width: 1" x1="415.5270343592735" x2="527.2668854800359" y1="126.34818437080344" y2="400.8552453410574" /><line stroke="black" style="stroke-width: 1" x1="263.66972562610243" x2="527.2668854800359" y1="244.8592075715074" y2="400.8552453410574" /><line stroke="black" style="stroke-width: 1" x1="263.66972562610243" x2="415.5270343592735" y1="244.8592075715074" y2="126.34818437080344" /><polygon fill="red" opacity="0.20" points="263.66972562610243,244.8592075715074 415.5270343592735,126.34818437080344 527.2668854800359,400.8552453410574" /><line stroke="black" style="stroke-width: 0.7" x1="324.19511872239536" x2="351.8317319987224" y1="280.67796037104415" y2="176.05666082674853" /><line stroke="black" style="stroke-width: 0.7" x1="435.32525691659725" x2="351.8317319987224" y1="174.9857280236292" y2="176.05666082674853" /><line stroke="black" style="stroke-width: 0.7" x1="435.32525691659725" x2="324.19511872239536" y1="174.9857280236292" y2="280.67796037104415" /><polygon fill="blue" opacity="0.20" points="435.32525691659725,174.9857280236292 324.19511872239536,280.67796037104415 351.8317319987224,176.05666082674853" /><line stroke="black" style="stroke-width: 0.48999999999999994" x1="322.85795649931225" x2="390.9509996689931" y1="176.42829403606103" y2="217.18862980588204" /><line stroke="black" style="stroke-width: 0.48999999999999994" x1="357.5423033022325" x2="390.9509996689931" y1="154.4386939311755" y2="217.18862980588204" /><line stroke="black" style="stroke-width: 0.48999999999999994" x1="357.5423033022325" x2="322.85795649931225" y1="154.4386939311755" y2="176.42829403606103" /><polygon fill="red" opacity="0.20" points="357.5423033022325,154.4386939311755 322.85795649931225,176.42829403606103 390.9509996689931,217.18862980588204" /><line stroke="black" style="stroke-width: 0.3429999999999999" x1="359.0038545037523" x2="352.99557722530585" y1="157.18385474697953" y2="157.32128211385614" /><line stroke="black" style="stroke-width: 0.3429999999999999" x1="338.70211493682046" x2="352.99557722530585" y1="185.91257007720884" y2="157.32128211385614" /><line stroke="black" style="stroke-width: 0.3429999999999999" x1="338.70211493682046" x2="359.0038545037523" y1="185.91257007720884" y2="157.18385474697953" /><polygon fill="blue" opacity="0.20" points="338.70211493682046,185.91257007720884 359.0038545037523,157.18385474697953 352.99557722530585,157.32128211385614" /><line stroke="black" style="stroke-width: 0.24009999999999992" x1="354.25190517801366" x2="356.9379721026473" y1="154.80824268732806" y2="160.10725681366102" /><line stroke="black" style="stroke-width: 0.24009999999999992" x1="338.05596223830844" x2="356.9379721026473" y1="157.66299602861915" y2="160.10725681366102" /><line stroke="black" style="stroke-width: 0.24009999999999992" x1="338.05596223830844" x2="354.25190517801366" y1="157.66299602861915" y2="154.80824268732806" /><polygon fill="red" opacity="0.20" points="338.05596223830844,157.66299602861915 354.25190517801366,154.80824268732806 356.9379721026473,160.10725681366102" /><line stroke="black" style="stroke-width: 0.16806999999999994" x1="353.621526107748" x2="355.9511557049626" y1="159.67794558307668" y2="154.50872686799008" /><line stroke="black" style="stroke-width: 0.16806999999999994" x1="352.09236632499653" x2="355.9511557049626" y1="150.547951633694" y2="154.50872686799008" /><line stroke="black" style="stroke-width: 0.16806999999999994" x1="352.09236632499653" x2="353.621526107748" y1="150.547951633694" y2="159.67794558307668" /><polygon fill="blue" opacity="0.20" points="352.09236632499653,150.547951633694 353.621526107748,159.67794558307668 355.9511557049626,154.50872686799008" /><line stroke="black" style="stroke-width: 0.11764899999999995" x1="357.4004498912446" x2="352.84293852687426" y1="155.9963251676082" y2="155.02931436571768" /><line stroke="black" style="stroke-width: 0.11764899999999995" x1="356.7833935505242" x2="352.84293852687426" y1="152.6620730257618" y2="155.02931436571768" /><line stroke="black" style="stroke-width: 0.11764899999999995" x1="356.7833935505242" x2="357.4004498912446" y1="152.6620730257618" y2="155.9963251676082" /><polygon fill="red" opacity="0.20" points="356.7833935505242,152.6620730257618 357.4004498912446,155.9963251676082 352.84293852687426,155.02931436571768" /><line stroke="black" style="stroke-width: 0.08235429999999996" x1="355.7649483926361" x2="357.076492559851" y1="153.27390731031952" y2="154.24582791998228" /><line stroke="black" style="stroke-width: 0.08235429999999996" x1="356.13299442506184" x2="357.076492559851" y1="155.7273970117129" y2="154.24582791998228" /><line stroke="black" style="stroke-width: 0.08235429999999996" x1="356.13299442506184" x2="355.7649483926361" y1="155.7273970117129" y2="153.27390731031952" /><polygon fill="blue" opacity="0.20" points="356.13299442506184,155.7273970117129 355.7649483926361,153.27390731031952 357.076492559851,154.24582791998228" /><line stroke="black" style="stroke-width: 0.05764800999999997" x1="357.13842781040466" x2="355.9364006433669" y1="154.1485713918445" y2="154.4168521986633" /><line stroke="black" style="stroke-width: 0.05764800999999997" x1="357.1761723521509" x2="355.9364006433669" y1="154.31969569120398" y2="154.4168521986633" /><line stroke="black" style="stroke-width: 0.05764800999999997" x1="357.1761723521509" x2="357.13842781040466" y1="154.31969569120398" y2="154.1485713918445" /><polygon fill="red" opacity="0.20" points="357.1761723521509,154.31969569120398 357.13842781040466,154.1485713918445 355.9364006433669,154.4168521986633" /><line stroke="black" style="stroke-width: 0.04035360699999998" x1="357.15198674530285" x2="357.13909080726745" y1="154.32159103135155" y2="154.15157725357858" /><line stroke="black" style="stroke-width: 0.04035360699999998" x1="357.1380003609819" x2="357.13909080726745" y1="154.1486667943597" y2="154.15157725357858" /><line stroke="black" style="stroke-width: 0.04035360699999998" x1="357.1380003609819" x2="357.15198674530285" y1="154.1486667943597" y2="154.32159103135155" /><polygon fill="blue" opacity="0.20" points="357.1380003609819,154.1486667943597 357.15198674530285,154.32159103135155 357.13909080726745,154.15157725357858" /></svg>