<?xml version="1.0" encoding="utf-8" ?>
<svg baseProfile="full" height="1000" version="1.1" width="1000" xmlns="http://www.w3.org/2000/svg" xmlns:ev="http://www.w3.org/2001/xml-events" xmlns:xlink="http://www.w3.org/1999/xlink"><defs /><line stroke="black" style="stroke-width: 1" x1="522.0" x2="111.0" y1="574.0" y2="983.0" /><line stroke="black" style="stroke-width: 1" x1="61.0" x2="111.0" y1="315.0" y2="983.0" /><line stroke="black" style="stroke-width: 1" x1="61.0" x2="522.0" y1="315.0" y2="574.0" /><polygon fill="blue" opacity="0.20" points="61.0,315.0 522.0,574.0 111.0,983.0" /><circle cx="332.8301751198313" cy="588.1594180299423" fill="red" r="2" /><text style="font-size:10;font-family:Courier New;stroke:black;stroke-width:0.3;fill:none;" x="332.8301751198313" y="588.1594180299423" /><line stroke="black" style="stroke-width: 1" x1="82.84661395423467" x2="384.261571805638" y1="606.8707624285641" y2="496.6155034656405" /><line stroke="black" style="stroke-width: 1" x1="419.87407570449324" x2="384.261571805638" y1="675.6289611602483" y2="496.6155034656405" /><line stroke="black" style="stroke-width: 1" x1="419.87407570449324" x2="82.84661395423467" y1="675.6289611602483" y2="606.8707624285641" /><polygon fill="red" opacity="0.20" points="419.87407570449324,675.6289611602483 82.84661395423467,606.8707624285641 384.261571805638,496.6155034656405" /><circle cx="373.5671739044585" cy="549.0355180394884" fill="blue" r="2" /><text style="font-size:10;font-family:Courier New;stroke:black;stroke-width:0.3;fill:none;" x="373.5671739044585" y="549.0355180394884" /><line stroke="black" style="stroke-width: 0.7" x1="393.8857513224992" x2="350.62273415960857" y1="544.9933894363858" y2="661.5007430036292" /><line stroke="black" style="stroke-width: 0.7" x1="357.9173058378612" x2="350.62273415960857" y1="506.252032081117" y2="661.5007430036292" /><line stroke="black" style="stroke-width: 0.7" x1="357.9173058378612" x2="393.8857513224992" y1="506.252032081117" y2="544.9933894363858" /><polygon fill="blue" opacity="0.20" points="357.9173058378612,506.252032081117 393.8857513224992,544.9933894363858 350.62273415960857,661.5007430036292" /><circle cx="472.1510736337453" cy="548.6707919740587" fill="red" r="2" /><text style="font-size:10;font-family:Courier New;stroke:black;stroke-width:0.3;fill:none;" x="472.1510736337453" y="548.6707919740587" /><line stroke="black" style="stroke-width: 0.48999999999999994" x1="356.1802336576586" x2="431.95117328181664" y1="543.2217444440266" y2="585.9933852698117" /><line stroke="black" style="stroke-width: 0.48999999999999994" x1="402.1697988962028" x2="431.95117328181664" y1="522.6844400627695" y2="585.9933852698117" /><line stroke="black" style="stroke-width: 0.48999999999999994" x1="402.1697988962028" x2="356.1802336576586" y1="522.6844400627695" y2="543.2217444440266" /><polygon fill="red" opacity="0.20" points="402.1697988962028,522.6844400627695 356.1802336576586,543.2217444440266 431.95117328181664,585.9933852698117" /><circle cx="403.0127733588323" cy="521.1910915290407" fill="blue" r="2" /><text style="font-size:10;font-family:Courier New;stroke:black;stroke-width:0.3;fill:none;" x="403.0127733588323" y="521.1910915290407" /><line stroke="black" style="stroke-width: 0.3429999999999999" x1="401.74733503079614" x2="403.4286165470706" y1="521.7863706398562" y2="522.1222968652654" /><line stroke="black" style="stroke-width: 0.3429999999999999" x1="382.2650061663534" x2="403.4286165470706" y1="557.9462354731528" y2="522.1222968652654" /><line stroke="black" style="stroke-width: 0.3429999999999999" x1="382.2650061663534" x2="401.74733503079614" y1="557.9462354731528" y2="521.7863706398562" /><polygon fill="blue" opacity="0.20" points="382.2650061663534,557.9462354731528 401.74733503079614,521.7863706398562 403.4286165470706,522.1222968652654" /><circle cx="390.78396814663006" cy="515.3095723252535" fill="red" r="2" /><text style="font-size:10;font-family:Courier New;stroke:black;stroke-width:0.3;fill:none;" x="390.78396814663006" y="515.3095723252535" /><line stroke="black" style="stroke-width: 0.24009999999999992" x1="403.14075787850106" x2="401.9853156400403" y1="522.609559250316" y2="521.3446705369812" /><line stroke="black" style="stroke-width: 0.24009999999999992" x1="389.96043103015495" x2="401.9853156400403" y1="519.431303905431" y2="521.3446705369812" /><line stroke="black" style="stroke-width: 0.24009999999999992" x1="389.96043103015495" x2="403.14075787850106" y1="519.431303905431" y2="522.609559250316" /><polygon fill="red" opacity="0.20" points="389.96043103015495,519.431303905431 403.14075787850106,522.609559250316 401.9853156400403,521.3446705369812" /><circle cx="405.97404160331973" cy="504.80329604085875" fill="blue" r="2" /><text style="font-size:10;font-family:Courier New;stroke:black;stroke-width:0.3;fill:none;" x="405.97404160331973" y="504.80329604085875" /><line stroke="black" style="stroke-width: 0.16806999999999994" x1="403.3085221578476" x2="401.7605590780117" y1="521.5552155259718" y2="522.2767432082611" /><line stroke="black" style="stroke-width: 0.16806999999999994" x1="395.5627457514162" x2="401.7605590780117" y1="514.3137382304229" y2="522.2767432082611" /><line stroke="black" style="stroke-width: 0.16806999999999994" x1="395.5627457514162" x2="403.3085221578476" y1="514.3137382304229" y2="521.5552155259718" /><polygon fill="blue" opacity="0.20" points="395.5627457514162,514.3137382304229 403.3085221578476,521.5552155259718 401.7605590780117,522.2767432082611" /><circle cx="400.1015539109977" cy="524.0512820980549" fill="red" r="2" /><text style="font-size:10;font-family:Courier New;stroke:black;stroke-width:0.3;fill:none;" x="400.1015539109977" y="524.0512820980549" /><line stroke="black" style="stroke-width: 0.11764899999999995" x1="401.994810448499" x2="402.8424606714018" y1="522.5777114257558" y2="521.1194975946288" /><line stroke="black" style="stroke-width: 0.11764899999999995" x1="399.7181540583965" x2="402.8424606714018" y1="523.22873733467" y2="521.1194975946288" /><line stroke="black" style="stroke-width: 0.11764899999999995" x1="399.7181540583965" x2="401.994810448499" y1="523.22873733467" y2="522.5777114257558" /><polygon fill="red" opacity="0.20" points="399.7181540583965,523.22873733467 401.994810448499,522.5777114257558 402.8424606714018,521.1194975946288" /><circle cx="404.18873472903965" cy="525.8274568236042" fill="blue" r="2" /><text style="font-size:10;font-family:Courier New;stroke:black;stroke-width:0.3;fill:none;" x="404.18873472903965" y="525.8274568236042" /><line stroke="black" style="stroke-width: 0.08235429999999996" x1="401.58395047872295" x2="403.1638529056003" y1="521.969126021172" y2="522.2434155120297" /><line stroke="black" style="stroke-width: 0.08235429999999996" x1="401.1369568332092" x2="403.1638529056003" y1="524.0534781666803" y2="522.2434155120297" /><line stroke="black" style="stroke-width: 0.08235429999999996" x1="401.1369568332092" x2="401.58395047872295" y1="524.0534781666803" y2="521.969126021172" /><polygon fill="blue" opacity="0.20" points="401.1369568332092,524.0534781666803 401.58395047872295,521.969126021172 403.1638529056003,522.2434155120297" /><circle cx="401.5126802641173" cy="521.889318110821" fill="red" r="2" /><text style="font-size:10;font-family:Courier New;stroke:black;stroke-width:0.3;fill:none;" x="401.5126802641173" y="521.889318110821" /><line stroke="black" style="stroke-width: 0.05764800999999997" x1="402.42117436621805" x2="401.59717936318276" y1="522.9066437390884" y2="521.9074391180659" /><line stroke="black" style="stroke-width: 0.05764800999999997" x1="401.5013153851136" x2="401.59717936318276" y1="521.9547796049693" y2="521.9074391180659" /><line stroke="black" style="stroke-width: 0.05764800999999997" x1="401.5013153851136" x2="402.42117436621805" y1="521.9547796049693" y2="522.9066437390884" /><polygon fill="red" opacity="0.20" points="401.5013153851136,521.9547796049693 402.42117436621805,522.9066437390884 401.59717936318276,521.9074391180659" /><circle cx="401.82094887377235" cy="521.691193556679" fill="blue" r="2" /><text style="font-size:10;font-family:Courier New;stroke:black;stroke-width:0.3;fill:none;" x="401.82094887377235" y="521.691193556679" /><line stroke="black" style="stroke-width: 0.04035360699999998" x1="401.8629294654214" x2="401.5239522406606" y1="521.7762038043642" y2="521.9782040769186" /><line stroke="black" style="stroke-width: 0.04035360699999998" x1="401.58161265233167" x2="401.5239522406606" y1="521.8885623902202" y2="521.9782040769186" /><line stroke="black" style="stroke-width: 0.04035360699999998" x1="401.58161265233167" x2="401.8629294654214" y1="521.8885623902202" y2="521.7762038043642" /><polygon fill="blue" opacity="0.20" points="401.58161265233167,521.8885623902202 401.8629294654214,521.7762038043642 401.5239522406606,521.9782040769186" /></svg>