<?xml version="1.0" encoding="utf-8" ?>
<svg baseProfile="full" height="1000" version="1.1" width="1000" xmlns="http://www.w3.org/2000/svg" xmlns:ev="http://www.w3.org/2001/xml-events" xmlns:xlink="http://www.w3.org/1999/xlink"><defs /><line stroke="black" style="stroke-width: 1" x1="736.0" x2="917.0" y1="179.0" y2="646.0" /><line stroke="black" style="stroke-width: 1" x1="145.0" x2="917.0" y1="739.0" y2="646.0" /><line stroke="black" style="stroke-width: 1" x1="145.0" x2="736.0" y1="739.0" y2="179.0" /><polygon fill="blue" opacity="0.20" points="145.0,739.0 736.0,179.0 917.0,646.0" /><line stroke="black" style="stroke-width: 1" x1="794.042152843135" x2="598.2098702482065" y1="660.8122795150116" y2="309.56255949408717" /><line stroke="black" style="stroke-width: 1" x1="847.5143272872234" x2="598.2098702482065" y1="466.719286426078" y2="309.56255949408717" /><line stroke="black" style="stroke-width: 1" x1="847.5143272872234" x2="794.042152843135" y1="466.719286426078" y2="660.8122795150116" /><polygon fill="red" opacity="0.20" points="847.5143272872234,466.719286426078 794.042152843135,660.8122795150116 598.2098702482065,309.56255949408717" /><line stroke="black" style="stroke-width: 0.7" x1="896.8068000489548" x2="870.1692071369491" y1="497.7923116484327" y2="384.48673306883217" /><line stroke="black" style="stroke-width: 0.7" x1="724.1698443674624" x2="870.1692071369491" y1="535.48754518581" y2="384.48673306883217" /><line stroke="black" style="stroke-width: 0.7" x1="724.1698443674624" x2="896.8068000489548" y1="535.48754518581" y2="497.7923116484327" /><polygon fill="blue" opacity="0.20" points="724.1698443674624,535.48754518581 896.8068000489548,497.7923116484327 870.1692071369491,384.48673306883217" /><line stroke="black" style="stroke-width: 0.48999999999999994" x1="826.418889712693" x2="894.9957928791999" y1="429.7357898874438" y2="498.1877445841704" /><line stroke="black" style="stroke-width: 0.48999999999999994" x1="896.1627641212397" x2="894.9957928791999" y1="495.0528425208469" y2="498.1877445841704" /><line stroke="black" style="stroke-width: 0.48999999999999994" x1="896.1627641212397" x2="826.418889712693" y1="495.0528425208469" y2="429.7357898874438" /><polygon fill="red" opacity="0.20" points="896.1627641212397,495.0528425208469 826.418889712693,429.7357898874438 894.9957928791999,498.1877445841704" /><line stroke="black" style="stroke-width: 0.3429999999999999" x1="909.0296619020129" x2="897.105157165448" y1="460.48775389792524" y2="495.9354194724959" /><line stroke="black" style="stroke-width: 0.3429999999999999" x1="894.0128941658486" x2="897.105157165448" y1="497.2066367316638" y2="495.9354194724959" /><line stroke="black" style="stroke-width: 0.3429999999999999" x1="894.0128941658486" x2="909.0296619020129" y1="497.2066367316638" y2="460.48775389792524" /><polygon fill="blue" opacity="0.20" points="894.0128941658486,497.2066367316638 909.0296619020129,460.48775389792524 897.105157165448,495.9354194724959" /><line stroke="black" style="stroke-width: 0.24009999999999992" x1="919.7714546245608" x2="894.9013688497831" y1="486.6173929866497" y2="495.0341453944376" /><line stroke="black" style="stroke-width: 0.24009999999999992" x1="896.4066389591811" x2="894.9013688497831" y1="498.0118864051201" y2="495.0341453944376" /><line stroke="black" style="stroke-width: 0.24009999999999992" x1="896.4066389591811" x2="919.7714546245608" y1="498.0118864051201" y2="486.6173929866497" /><polygon fill="red" opacity="0.20" points="896.4066389591811,498.0118864051201 919.7714546245608,486.6173929866497 894.9013688497831,495.0341453944376" /><line stroke="black" style="stroke-width: 0.16806999999999994" x1="896.574368861644" x2="896.3637469334602" y1="498.3436914453925" y2="498.03280387829693" /><line stroke="black" style="stroke-width: 0.16806999999999994" x1="895.3477588967066" x2="896.3637469334602" y1="494.88307416227593" y2="498.03280387829693" /><line stroke="black" style="stroke-width: 0.16806999999999994" x1="895.3477588967066" x2="896.574368861644" y1="494.88307416227593" y2="498.3436914453925" /><polygon fill="blue" opacity="0.20" points="895.3477588967066,494.88307416227593 896.574368861644,498.3436914453925 896.3637469334602,498.03280387829693" /><line stroke="black" style="stroke-width: 0.11764899999999995" x1="896.474426647402" x2="896.4529663325121" y1="498.3759291625998" y2="498.00118021318355" /><line stroke="black" style="stroke-width: 0.11764899999999995" x1="894.5815360162251" x2="896.4529663325121" y1="495.4021793232589" y2="498.00118021318355" /><line stroke="black" style="stroke-width: 0.11764899999999995" x1="894.5815360162251" x2="896.474426647402" y1="495.4021793232589" y2="498.3759291625998" /><polygon fill="red" opacity="0.20" points="894.5815360162251,495.4021793232589 896.474426647402,498.3759291625998 896.4529663325121,498.00118021318355" /><line stroke="black" style="stroke-width: 0.08235429999999996" x1="896.6379981338499" x2="896.2984802962931" y1="498.2581482724058" y2="498.0995157109108" /><line stroke="black" style="stroke-width: 0.08235429999999996" x1="896.2985017750451" x2="896.2984802962931" y1="495.30385582985036" y2="498.0995157109108" /><line stroke="black" style="stroke-width: 0.08235429999999996" x1="896.2985017750451" x2="896.6379981338499" y1="495.30385582985036" y2="498.2581482724058" /><polygon fill="blue" opacity="0.20" points="896.2985017750451,495.30385582985036 896.6379981338499,498.2581482724058 896.2984802962931,498.0995157109108" /><line stroke="black" style="stroke-width: 0.05764800999999997" x1="896.2984790775557" x2="896.6155811106692" y1="498.25814566363204" y2="498.06307565814797" /><line stroke="black" style="stroke-width: 0.05764800999999997" x1="895.2263398997733" x2="896.6155811106692" y1="497.59858068316356" y2="498.06307565814797" /><line stroke="black" style="stroke-width: 0.05764800999999997" x1="895.2263398997733" x2="896.2984790775557" y1="497.59858068316356" y2="498.25814566363204" /><polygon fill="red" opacity="0.20" points="895.2263398997733,497.59858068316356 896.2984790775557,498.25814566363204 896.6155811106692,498.06307565814797" /><line stroke="black" style="stroke-width: 0.04035360699999998" x1="896.3890276684984" x2="896.4414637068531" y1="497.98732715989155" y2="498.34610780157215" /><line stroke="black" style="stroke-width: 0.04035360699999998" x1="895.8150311488529" x2="896.4414637068531" y1="498.55554580694564" y2="498.34610780157215" /><line stroke="black" style="stroke-width: 0.04035360699999998" x1="895.8150311488529" x2="896.3890276684984" y1="498.55554580694564" y2="497.98732715989155" /><polygon fill="blue" opacity="0.20" points="895.8150311488529,498.55554580694564 896.3890276684984,497.98732715989155 896.4414637068531,498.34610780157215" /></svg>