<?xml version="1.0" encoding="utf-8" ?>
<svg baseProfile="full" height="1000" version="1.1" width="1000" xmlns="http://www.w3.org/2000/svg" xmlns:ev="http://www.w3.org/2001/xml-events" xmlns:xlink="http://www.w3.org/1999/xlink"><defs /><line stroke="black" style="stroke-width: 1" x1="220.0" x2="108.0" y1="743.0" y2="39.0" /><line stroke="black" style="stroke-width: 1" x1="542.0" x2="108.0" y1="381.0" y2="39.0" /><line stroke="black" style="stroke-width: 1" x1="542.0" x2="220.0" y1="381.0" y2="743.0" /><polygon fill="blue" opacity="0.20" points="542.0,381.0 220.0,743.0 108.0,39.0" /><line stroke="black" style="stroke-width: 1" x1="438.2117747622609" x2="443.3106101079175" y1="299.2129653656526" y2="491.9489414314716" /><line stroke="black" style="stroke-width: 1" x1="171.5426861844214" x2="443.3106101079175" y1="438.41117030207744" y2="491.9489414314716" /><line stroke="black" style="stroke-width: 1" x1="171.5426861844214" x2="438.2117747622609" y1="438.41117030207744" y2="299.2129653656526" /><polygon fill="red" opacity="0.20" points="171.5426861844214,438.41117030207744 438.2117747622609,299.2129653656526 443.3106101079175,491.9489414314716" /><line stroke="black" style="stroke-width: 0.7" x1="378.3191112586813" x2="356.4806888777037" y1="479.14573809344245" y2="341.8756545558702" /><line stroke="black" style="stroke-width: 0.7" x1="441.1045756040014" x2="356.4806888777037" y1="408.56083718350254" y2="341.8756545558702" /><line stroke="black" style="stroke-width: 0.7" x1="441.1045756040014" x2="378.3191112586813" y1="408.56083718350254" y2="479.14573809344245" /><polygon fill="blue" opacity="0.20" points="441.1045756040014,408.56083718350254 378.3191112586813,479.14573809344245 356.4806888777037,341.8756545558702" /><line stroke="black" style="stroke-width: 0.48999999999999994" x1="420.8673336315236" x2="421.8615347023447" y1="392.61351747249284" y2="430.1943179487179" /><line stroke="black" style="stroke-width: 0.48999999999999994" x1="368.87061762874976" x2="421.8615347023447" y1="419.7552067053099" y2="430.1943179487179" /><line stroke="black" style="stroke-width: 0.48999999999999994" x1="368.87061762874976" x2="420.8673336315236" y1="419.7552067053099" y2="392.61351747249284" /><polygon fill="red" opacity="0.20" points="368.87061762874976,419.7552067053099 420.8673336315236,392.61351747249284 421.8615347023447,430.1943179487179" /><line stroke="black" style="stroke-width: 0.3429999999999999" x1="409.18910788945" x2="404.93092313864554" y1="427.69787364219013" y2="400.9321409228904" /><line stroke="black" style="stroke-width: 0.3429999999999999" x1="421.4313890480283" x2="404.93092313864554" y1="413.93481221551707" y2="400.9321409228904" /><line stroke="black" style="stroke-width: 0.3429999999999999" x1="421.4313890480283" x2="409.18910788945" y1="413.93481221551707" y2="427.69787364219013" /><polygon fill="blue" opacity="0.20" points="421.4313890480283,413.93481221551707 409.18910788945,427.69787364219013 404.93092313864554,400.9321409228904" /><line stroke="black" style="stroke-width: 0.24009999999999992" x1="417.48541192283085" x2="417.6792671274326" y1="410.82530950396" y2="418.1530362380302" /><line stroke="black" style="stroke-width: 0.24009999999999992" x1="407.34678472200653" x2="417.6792671274326" y1="416.11755658967644" y2="418.1530362380302" /><line stroke="black" style="stroke-width: 0.24009999999999992" x1="407.34678472200653" x2="417.48541192283085" y1="416.11755658967644" y2="410.82530950396" /><polygon fill="red" opacity="0.20" points="407.34678472200653,416.11755658967644 417.48541192283085,410.82530950396 417.6792671274326,418.1530362380302" /><line stroke="black" style="stroke-width: 0.16806999999999994" x1="415.2083224012708" x2="414.3780363551408" y1="417.6662647628939" y2="412.4473239016312" /><line stroke="black" style="stroke-width: 0.16806999999999994" x1="417.59539478382305" x2="414.3780363551408" y1="414.9826616495731" y2="412.4473239016312" /><line stroke="black" style="stroke-width: 0.16806999999999994" x1="417.59539478382305" x2="415.2083224012708" y1="414.9826616495731" y2="417.6662647628939" /><polygon fill="blue" opacity="0.20" points="417.59539478382305,414.9826616495731 415.2083224012708,417.6662647628939 414.3780363551408,412.4473239016312" /><line stroke="black" style="stroke-width: 0.11764899999999995" x1="416.8259848269827" x2="416.8637838612836" y1="414.3763524208566" y2="415.8051559165338" /><line stroke="black" style="stroke-width: 0.11764899999999995" x1="414.84909533436485" x2="416.8637838612836" y1="415.4082660566703" y2="415.8051559165338" /><line stroke="black" style="stroke-width: 0.11764899999999995" x1="414.84909533436485" x2="416.8259848269827" y1="415.4082660566703" y2="414.3763524208566" /><polygon fill="red" opacity="0.20" points="414.84909533436485,415.4082660566703 416.8259848269827,414.3763524208566 416.8637838612836,415.8051559165338" /><line stroke="black" style="stroke-width: 0.08235429999999996" x1="416.3819844450933" x2="416.220090361394" y1="415.7102423354906" y2="414.69262238093415" /><line stroke="black" style="stroke-width: 0.08235429999999996" x1="416.8474299356847" x2="416.220090361394" y1="415.18697752930433" y2="414.69262238093415" /><line stroke="black" style="stroke-width: 0.08235429999999996" x1="416.8474299356847" x2="416.3819844450933" y1="415.18697752930433" y2="415.7102423354906" /><polygon fill="blue" opacity="0.20" points="416.8474299356847,415.18697752930433 416.3819844450933,415.7102423354906 416.220090361394,414.69262238093415" /><line stroke="black" style="stroke-width: 0.05764800999999997" x1="416.6974058318907" x2="416.70477611117167" y1="415.0687557701064" y2="415.347352325806" /><line stroke="black" style="stroke-width: 0.05764800999999997" x1="416.31194022707115" x2="416.70477611117167" y1="415.26996439367394" y2="415.347352325806" /><line stroke="black" style="stroke-width: 0.05764800999999997" x1="416.31194022707115" x2="416.6974058318907" y1="415.26996439367394" y2="415.0687557701064" /><polygon fill="red" opacity="0.20" points="416.31194022707115,415.26996439367394 416.6974058318907,415.0687557701064 416.70477611117167,415.347352325806" /><line stroke="black" style="stroke-width: 0.04035360699999998" x1="416.6108320115815" x2="416.5792649456822" y1="415.32884551443874" y2="415.13042395737165" /><line stroke="black" style="stroke-width: 0.04035360699999998" x1="416.7015873260254" x2="416.5792649456822" y1="415.2268162478596" y2="415.13042395737165" /><line stroke="black" style="stroke-width: 0.04035360699999998" x1="416.7015873260254" x2="416.6108320115815" y1="415.2268162478596" y2="415.32884551443874" /><polygon fill="blue" opacity="0.20" points="416.7015873260254,415.2268162478596 416.6108320115815,415.32884551443874 416.5792649456822,415.13042395737165" /></svg>